999
Kaydara Dxf writer for FBX
  0
SECTION
  2
HEADER
  9
$ACADVER
  1
AC1008
  9
$UCSORG
 10
0.0
 20
0.0
 30
0.0
  9
$UCSXDIR
 10
1.0
 20
0.0
 30
0.0
  9
$TILEMODE
 70
   1
  9
$UCSYDIR
 10
0.0
 20
1.0
 30
0.0
  0
ENDSEC
  0
SECTION
  2
TABLES
  0
TABLE
  2
LTYPE
 70
   1
  0
LTYPE
  2
CONTINUOUS
 70
   64
  3
Solid line
 72
   65
 73
   0
 40
0.0
  0
ENDTAB
  0
TABLE
  2
LAYER
 70
   1
  0
LAYER
  2
pSphere1
 70
   0
 62
   254
  6
CONTINUOUS
  0
ENDTAB
  0
ENDSEC
  0
SECTION
  2
BLOCKS
  0
ENDSEC
  0
SECTION
  2
ENTITIES
  0
POLYLINE
  8
pSphere1
 62
   254
 66
   1
 10
0.0
 20
0.0
 30
0.0
 70
   64
 71
   382
 72
   760
  0
VERTEX
  8
pSphere1
 10
-0.149599
 20
-0.045737
 30
-0.987688
 70
   192
  0
VERTEX
  8
pSphere1
 10
-0.128144
 20
-0.089727
 30
-0.987688
 70
   192
  0
VERTEX
  8
pSphere1
 10
-0.094145
 20
-0.124934
 30
-0.987688
 70
   192
  0
VERTEX
  8
pSphere1
 10
-0.050930
 20
-0.147912
 30
-0.987688
 70
   192
  0
VERTEX
  8
pSphere1
 10
-0.002730
 20
-0.156411
 30
-0.987688
 70
   192
  0
VERTEX
  8
pSphere1
 10
0.045737
 20
-0.149599
 30
-0.987688
 70
   192
  0
VERTEX
  8
pSphere1
 10
0.089727
 20
-0.128144
 30
-0.987688
 70
   192
  0
VERTEX
  8
pSphere1
 10
0.124934
 20
-0.094145
 30
-0.987688
 70
   192
  0
VERTEX
  8
pSphere1
 10
0.147912
 20
-0.050930
 30
-0.987688
 70
   192
  0
VERTEX
  8
pSphere1
 10
0.156411
 20
-0.002730
 30
-0.987688
 70
   192
  0
VERTEX
  8
pSphere1
 10
0.149599
 20
0.045737
 30
-0.987688
 70
   192
  0
VERTEX
  8
pSphere1
 10
0.128144
 20
0.089727
 30
-0.987688
 70
   192
  0
VERTEX
  8
pSphere1
 10
0.094145
 20
0.124934
 30
-0.987688
 70
   192
  0
VERTEX
  8
pSphere1
 10
0.050930
 20
0.147912
 30
-0.987688
 70
   192
  0
VERTEX
  8
pSphere1
 10
0.002730
 20
0.156411
 30
-0.987688
 70
   192
  0
VERTEX
  8
pSphere1
 10
-0.045737
 20
0.149599
 30
-0.987688
 70
   192
  0
VERTEX
  8
pSphere1
 10
-0.089727
 20
0.128144
 30
-0.987688
 70
   192
  0
VERTEX
  8
pSphere1
 10
-0.124934
 20
0.094145
 30
-0.987688
 70
   192
  0
VERTEX
  8
pSphere1
 10
-0.147912
 20
0.050930
 30
-0.987688
 70
   192
  0
VERTEX
  8
pSphere1
 10
-0.156411
 20
0.002730
 30
-0.987688
 70
   192
  0
VERTEX
  8
pSphere1
 10
-0.295515
 20
-0.090348
 30
-0.951057
 70
   192
  0
VERTEX
  8
pSphere1
 10
-0.253132
 20
-0.177245
 30
-0.951057
 70
   192
  0
VERTEX
  8
pSphere1
 10
-0.185971
 20
-0.246792
 30
-0.951057
 70
   192
  0
VERTEX
  8
pSphere1
 10
-0.100606
 20
-0.292181
 30
-0.951057
 70
   192
  0
VERTEX
  8
pSphere1
 10
-0.005393
 20
-0.308970
 30
-0.951057
 70
   192
  0
VERTEX
  8
pSphere1
 10
0.090348
 20
-0.295515
 30
-0.951057
 70
   192
  0
VERTEX
  8
pSphere1
 10
0.177245
 20
-0.253132
 30
-0.951057
 70
   192
  0
VERTEX
  8
pSphere1
 10
0.246792
 20
-0.185971
 30
-0.951057
 70
   192
  0
VERTEX
  8
pSphere1
 10
0.292181
 20
-0.100606
 30
-0.951057
 70
   192
  0
VERTEX
  8
pSphere1
 10
0.308970
 20
-0.005393
 30
-0.951057
 70
   192
  0
VERTEX
  8
pSphere1
 10
0.295515
 20
0.090348
 30
-0.951057
 70
   192
  0
VERTEX
  8
pSphere1
 10
0.253132
 20
0.177245
 30
-0.951057
 70
   192
  0
VERTEX
  8
pSphere1
 10
0.185971
 20
0.246792
 30
-0.951057
 70
   192
  0
VERTEX
  8
pSphere1
 10
0.100606
 20
0.292181
 30
-0.951057
 70
   192
  0
VERTEX
  8
pSphere1
 10
0.005393
 20
0.308970
 30
-0.951057
 70
   192
  0
VERTEX
  8
pSphere1
 10
-0.090348
 20
0.295514
 30
-0.951057
 70
   192
  0
VERTEX
  8
pSphere1
 10
-0.177245
 20
0.253132
 30
-0.951057
 70
   192
  0
VERTEX
  8
pSphere1
 10
-0.246792
 20
0.185971
 30
-0.951057
 70
   192
  0
VERTEX
  8
pSphere1
 10
-0.292181
 20
0.100606
 30
-0.951057
 70
   192
  0
VERTEX
  8
pSphere1
 10
-0.308970
 20
0.005393
 30
-0.951057
 70
   192
  0
VERTEX
  8
pSphere1
 10
-0.434154
 20
-0.132734
 30
-0.891007
 70
   192
  0
VERTEX
  8
pSphere1
 10
-0.371888
 20
-0.260398
 30
-0.891007
 70
   192
  0
VERTEX
  8
pSphere1
 10
-0.273218
 20
-0.362573
 30
-0.891007
 70
   192
  0
VERTEX
  8
pSphere1
 10
-0.147805
 20
-0.429257
 30
-0.891007
 70
   192
  0
VERTEX
  8
pSphere1
 10
-0.007923
 20
-0.453922
 30
-0.891007
 70
   192
  0
VERTEX
  8
pSphere1
 10
0.132734
 20
-0.434153
 30
-0.891007
 70
   192
  0
VERTEX
  8
pSphere1
 10
0.260398
 20
-0.371887
 30
-0.891007
 70
   192
  0
VERTEX
  8
pSphere1
 10
0.362573
 20
-0.273218
 30
-0.891007
 70
   192
  0
VERTEX
  8
pSphere1
 10
0.429257
 20
-0.147805
 30
-0.891007
 70
   192
  0
VERTEX
  8
pSphere1
 10
0.453921
 20
-0.007923
 30
-0.891007
 70
   192
  0
VERTEX
  8
pSphere1
 10
0.434153
 20
0.132734
 30
-0.891007
 70
   192
  0
VERTEX
  8
pSphere1
 10
0.371887
 20
0.260398
 30
-0.891007
 70
   192
  0
VERTEX
  8
pSphere1
 10
0.273218
 20
0.362573
 30
-0.891007
 70
   192
  0
VERTEX
  8
pSphere1
 10
0.147805
 20
0.429257
 30
-0.891007
 70
   192
  0
VERTEX
  8
pSphere1
 10
0.007923
 20
0.453921
 30
-0.891007
 70
   192
  0
VERTEX
  8
pSphere1
 10
-0.132734
 20
0.434153
 30
-0.891007
 70
   192
  0
VERTEX
  8
pSphere1
 10
-0.260398
 20
0.371887
 30
-0.891007
 70
   192
  0
VERTEX
  8
pSphere1
 10
-0.362573
 20
0.273218
 30
-0.891007
 70
   192
  0
VERTEX
  8
pSphere1
 10
-0.429256
 20
0.147805
 30
-0.891007
 70
   192
  0
VERTEX
  8
pSphere1
 10
-0.453921
 20
0.007923
 30
-0.891007
 70
   192
  0
VERTEX
  8
pSphere1
 10
-0.562102
 20
-0.171852
 30
-0.809017
 70
   192
  0
VERTEX
  8
pSphere1
 10
-0.481486
 20
-0.337140
 30
-0.809017
 70
   192
  0
VERTEX
  8
pSphere1
 10
-0.353738
 20
-0.469427
 30
-0.809017
 70
   192
  0
VERTEX
  8
pSphere1
 10
-0.191364
 20
-0.555762
 30
-0.809017
 70
   192
  0
VERTEX
  8
pSphere1
 10
-0.010258
 20
-0.587696
 30
-0.809017
 70
   192
  0
VERTEX
  8
pSphere1
 10
0.171852
 20
-0.562102
 30
-0.809017
 70
   192
  0
VERTEX
  8
pSphere1
 10
0.337140
 20
-0.481486
 30
-0.809017
 70
   192
  0
VERTEX
  8
pSphere1
 10
0.469426
 20
-0.353738
 30
-0.809017
 70
   192
  0
VERTEX
  8
pSphere1
 10
0.555762
 20
-0.191364
 30
-0.809017
 70
   192
  0
VERTEX
  8
pSphere1
 10
0.587696
 20
-0.010258
 30
-0.809017
 70
   192
  0
VERTEX
  8
pSphere1
 10
0.562102
 20
0.171852
 30
-0.809017
 70
   192
  0
VERTEX
  8
pSphere1
 10
0.481486
 20
0.337140
 30
-0.809017
 70
   192
  0
VERTEX
  8
pSphere1
 10
0.353738
 20
0.469426
 30
-0.809017
 70
   192
  0
VERTEX
  8
pSphere1
 10
0.191364
 20
0.555762
 30
-0.809017
 70
   192
  0
VERTEX
  8
pSphere1
 10
0.010258
 20
0.587696
 30
-0.809017
 70
   192
  0
VERTEX
  8
pSphere1
 10
-0.171852
 20
0.562102
 30
-0.809017
 70
   192
  0
VERTEX
  8
pSphere1
 10
-0.337140
 20
0.481486
 30
-0.809017
 70
   192
  0
VERTEX
  8
pSphere1
 10
-0.469426
 20
0.353738
 30
-0.809017
 70
   192
  0
VERTEX
  8
pSphere1
 10
-0.555762
 20
0.191364
 30
-0.809017
 70
   192
  0
VERTEX
  8
pSphere1
 10
-0.587696
 20
0.010258
 30
-0.809017
 70
   192
  0
VERTEX
  8
pSphere1
 10
-0.676210
 20
-0.206738
 30
-0.707107
 70
   192
  0
VERTEX
  8
pSphere1
 10
-0.579228
 20
-0.405580
 30
-0.707107
 70
   192
  0
VERTEX
  8
pSphere1
 10
-0.425548
 20
-0.564721
 30
-0.707107
 70
   192
  0
VERTEX
  8
pSphere1
 10
-0.230212
 20
-0.668583
 30
-0.707107
 70
   192
  0
VERTEX
  8
pSphere1
 10
-0.012341
 20
-0.706999
 30
-0.707107
 70
   192
  0
VERTEX
  8
pSphere1
 10
0.206738
 20
-0.676210
 30
-0.707107
 70
   192
  0
VERTEX
  8
pSphere1
 10
0.405580
 20
-0.579228
 30
-0.707107
 70
   192
  0
VERTEX
  8
pSphere1
 10
0.564721
 20
-0.425548
 30
-0.707107
 70
   192
  0
VERTEX
  8
pSphere1
 10
0.668583
 20
-0.230211
 30
-0.707107
 70
   192
  0
VERTEX
  8
pSphere1
 10
0.706999
 20
-0.012341
 30
-0.707107
 70
   192
  0
VERTEX
  8
pSphere1
 10
0.676210
 20
0.206738
 30
-0.707107
 70
   192
  0
VERTEX
  8
pSphere1
 10
0.579228
 20
0.405580
 30
-0.707107
 70
   192
  0
VERTEX
  8
pSphere1
 10
0.425548
 20
0.564721
 30
-0.707107
 70
   192
  0
VERTEX
  8
pSphere1
 10
0.230211
 20
0.668583
 30
-0.707107
 70
   192
  0
VERTEX
  8
pSphere1
 10
0.012341
 20
0.706999
 30
-0.707107
 70
   192
  0
VERTEX
  8
pSphere1
 10
-0.206738
 20
0.676210
 30
-0.707107
 70
   192
  0
VERTEX
  8
pSphere1
 10
-0.405580
 20
0.579228
 30
-0.707107
 70
   192
  0
VERTEX
  8
pSphere1
 10
-0.564721
 20
0.425548
 30
-0.707107
 70
   192
  0
VERTEX
  8
pSphere1
 10
-0.668583
 20
0.230211
 30
-0.707107
 70
   192
  0
VERTEX
  8
pSphere1
 10
-0.706999
 20
0.012341
 30
-0.707107
 70
   192
  0
VERTEX
  8
pSphere1
 10
-0.773667
 20
-0.236534
 30
-0.587785
 70
   192
  0
VERTEX
  8
pSphere1
 10
-0.662708
 20
-0.464033
 30
-0.587785
 70
   192
  0
VERTEX
  8
pSphere1
 10
-0.486879
 20
-0.646110
 30
-0.587785
 70
   192
  0
VERTEX
  8
pSphere1
 10
-0.263390
 20
-0.764941
 30
-0.587785
 70
   192
  0
VERTEX
  8
pSphere1
 10
-0.014119
 20
-0.808894
 30
-0.587785
 70
   192
  0
VERTEX
  8
pSphere1
 10
0.236534
 20
-0.773667
 30
-0.587785
 70
   192
  0
VERTEX
  8
pSphere1
 10
0.464033
 20
-0.662708
 30
-0.587785
 70
   192
  0
VERTEX
  8
pSphere1
 10
0.646110
 20
-0.486879
 30
-0.587785
 70
   192
  0
VERTEX
  8
pSphere1
 10
0.764941
 20
-0.263390
 30
-0.587785
 70
   192
  0
VERTEX
  8
pSphere1
 10
0.808894
 20
-0.014119
 30
-0.587785
 70
   192
  0
VERTEX
  8
pSphere1
 10
0.773667
 20
0.236534
 30
-0.587785
 70
   192
  0
VERTEX
  8
pSphere1
 10
0.662708
 20
0.464033
 30
-0.587785
 70
   192
  0
VERTEX
  8
pSphere1
 10
0.486879
 20
0.646110
 30
-0.587785
 70
   192
  0
VERTEX
  8
pSphere1
 10
0.263390
 20
0.764941
 30
-0.587785
 70
   192
  0
VERTEX
  8
pSphere1
 10
0.014119
 20
0.808894
 30
-0.587785
 70
   192
  0
VERTEX
  8
pSphere1
 10
-0.236534
 20
0.773667
 30
-0.587785
 70
   192
  0
VERTEX
  8
pSphere1
 10
-0.464033
 20
0.662708
 30
-0.587785
 70
   192
  0
VERTEX
  8
pSphere1
 10
-0.646110
 20
0.486879
 30
-0.587785
 70
   192
  0
VERTEX
  8
pSphere1
 10
-0.764941
 20
0.263390
 30
-0.587785
 70
   192
  0
VERTEX
  8
pSphere1
 10
-0.808894
 20
0.014119
 30
-0.587785
 70
   192
  0
VERTEX
  8
pSphere1
 10
-0.852074
 20
-0.260505
 30
-0.453991
 70
   192
  0
VERTEX
  8
pSphere1
 10
-0.729870
 20
-0.511061
 30
-0.453991
 70
   192
  0
VERTEX
  8
pSphere1
 10
-0.536221
 20
-0.711590
 30
-0.453991
 70
   192
  0
VERTEX
  8
pSphere1
 10
-0.290083
 20
-0.842464
 30
-0.453991
 70
   192
  0
VERTEX
  8
pSphere1
 10
-0.015550
 20
-0.890871
 30
-0.453991
 70
   192
  0
VERTEX
  8
pSphere1
 10
0.260505
 20
-0.852074
 30
-0.453991
 70
   192
  0
VERTEX
  8
pSphere1
 10
0.511061
 20
-0.729870
 30
-0.453991
 70
   192
  0
VERTEX
  8
pSphere1
 10
0.711590
 20
-0.536221
 30
-0.453991
 70
   192
  0
VERTEX
  8
pSphere1
 10
0.842463
 20
-0.290083
 30
-0.453991
 70
   192
  0
VERTEX
  8
pSphere1
 10
0.890871
 20
-0.015550
 30
-0.453991
 70
   192
  0
VERTEX
  8
pSphere1
 10
0.852074
 20
0.260505
 30
-0.453991
 70
   192
  0
VERTEX
  8
pSphere1
 10
0.729870
 20
0.511060
 30
-0.453991
 70
   192
  0
VERTEX
  8
pSphere1
 10
0.536221
 20
0.711590
 30
-0.453991
 70
   192
  0
VERTEX
  8
pSphere1
 10
0.290083
 20
0.842463
 30
-0.453991
 70
   192
  0
VERTEX
  8
pSphere1
 10
0.015550
 20
0.890871
 30
-0.453991
 70
   192
  0
VERTEX
  8
pSphere1
 10
-0.260505
 20
0.852074
 30
-0.453991
 70
   192
  0
VERTEX
  8
pSphere1
 10
-0.511060
 20
0.729870
 30
-0.453991
 70
   192
  0
VERTEX
  8
pSphere1
 10
-0.711589
 20
0.536221
 30
-0.453991
 70
   192
  0
VERTEX
  8
pSphere1
 10
-0.842463
 20
0.290083
 30
-0.453991
 70
   192
  0
VERTEX
  8
pSphere1
 10
-0.890871
 20
0.015550
 30
-0.453991
 70
   192
  0
VERTEX
  8
pSphere1
 10
-0.909501
 20
-0.278062
 30
-0.309017
 70
   192
  0
VERTEX
  8
pSphere1
 10
-0.779060
 20
-0.545504
 30
-0.309017
 70
   192
  0
VERTEX
  8
pSphere1
 10
-0.572360
 20
-0.759548
 30
-0.309017
 70
   192
  0
VERTEX
  8
pSphere1
 10
-0.309634
 20
-0.899242
 30
-0.309017
 70
   192
  0
VERTEX
  8
pSphere1
 10
-0.016598
 20
-0.950912
 30
-0.309017
 70
   192
  0
VERTEX
  8
pSphere1
 10
0.278062
 20
-0.909500
 30
-0.309017
 70
   192
  0
VERTEX
  8
pSphere1
 10
0.545504
 20
-0.779060
 30
-0.309017
 70
   192
  0
VERTEX
  8
pSphere1
 10
0.759548
 20
-0.572360
 30
-0.309017
 70
   192
  0
VERTEX
  8
pSphere1
 10
0.899242
 20
-0.309634
 30
-0.309017
 70
   192
  0
VERTEX
  8
pSphere1
 10
0.950912
 20
-0.016598
 30
-0.309017
 70
   192
  0
VERTEX
  8
pSphere1
 10
0.909500
 20
0.278062
 30
-0.309017
 70
   192
  0
VERTEX
  8
pSphere1
 10
0.779060
 20
0.545504
 30
-0.309017
 70
   192
  0
VERTEX
  8
pSphere1
 10
0.572360
 20
0.759548
 30
-0.309017
 70
   192
  0
VERTEX
  8
pSphere1
 10
0.309634
 20
0.899242
 30
-0.309017
 70
   192
  0
VERTEX
  8
pSphere1
 10
0.016598
 20
0.950912
 30
-0.309017
 70
   192
  0
VERTEX
  8
pSphere1
 10
-0.278062
 20
0.909500
 30
-0.309017
 70
   192
  0
VERTEX
  8
pSphere1
 10
-0.545504
 20
0.779060
 30
-0.309017
 70
   192
  0
VERTEX
  8
pSphere1
 10
-0.759548
 20
0.572360
 30
-0.309017
 70
   192
  0
VERTEX
  8
pSphere1
 10
-0.899242
 20
0.309634
 30
-0.309017
 70
   192
  0
VERTEX
  8
pSphere1
 10
-0.950912
 20
0.016598
 30
-0.309017
 70
   192
  0
VERTEX
  8
pSphere1
 10
-0.944532
 20
-0.288772
 30
-0.156434
 70
   192
  0
VERTEX
  8
pSphere1
 10
-0.809067
 20
-0.566515
 30
-0.156434
 70
   192
  0
VERTEX
  8
pSphere1
 10
-0.594406
 20
-0.788803
 30
-0.156434
 70
   192
  0
VERTEX
  8
pSphere1
 10
-0.321560
 20
-0.933878
 30
-0.156434
 70
   192
  0
VERTEX
  8
pSphere1
 10
-0.017238
 20
-0.987538
 30
-0.156434
 70
   192
  0
VERTEX
  8
pSphere1
 10
0.288772
 20
-0.944531
 30
-0.156434
 70
   192
  0
VERTEX
  8
pSphere1
 10
0.566515
 20
-0.809067
 30
-0.156434
 70
   192
  0
VERTEX
  8
pSphere1
 10
0.788803
 20
-0.594406
 30
-0.156434
 70
   192
  0
VERTEX
  8
pSphere1
 10
0.933878
 20
-0.321560
 30
-0.156434
 70
   192
  0
VERTEX
  8
pSphere1
 10
0.987538
 20
-0.017238
 30
-0.156434
 70
   192
  0
VERTEX
  8
pSphere1
 10
0.944531
 20
0.288772
 30
-0.156434
 70
   192
  0
VERTEX
  8
pSphere1
 10
0.809067
 20
0.566515
 30
-0.156434
 70
   192
  0
VERTEX
  8
pSphere1
 10
0.594406
 20
0.788803
 30
-0.156434
 70
   192
  0
VERTEX
  8
pSphere1
 10
0.321560
 20
0.933878
 30
-0.156434
 70
   192
  0
VERTEX
  8
pSphere1
 10
0.017238
 20
0.987538
 30
-0.156434
 70
   192
  0
VERTEX
  8
pSphere1
 10
-0.288772
 20
0.944531
 30
-0.156434
 70
   192
  0
VERTEX
  8
pSphere1
 10
-0.566515
 20
0.809067
 30
-0.156434
 70
   192
  0
VERTEX
  8
pSphere1
 10
-0.788803
 20
0.594406
 30
-0.156434
 70
   192
  0
VERTEX
  8
pSphere1
 10
-0.933878
 20
0.321560
 30
-0.156434
 70
   192
  0
VERTEX
  8
pSphere1
 10
-0.987538
 20
0.017238
 30
-0.156434
 70
   192
  0
VERTEX
  8
pSphere1
 10
-0.956305
 20
-0.292372
 30
0.000000
 70
   192
  0
VERTEX
  8
pSphere1
 10
-0.819153
 20
-0.573577
 30
0.000000
 70
   192
  0
VERTEX
  8
pSphere1
 10
-0.601815
 20
-0.798636
 30
0.000000
 70
   192
  0
VERTEX
  8
pSphere1
 10
-0.325568
 20
-0.945519
 30
0.000000
 70
   192
  0
VERTEX
  8
pSphere1
 10
-0.017452
 20
-0.999848
 30
0.000000
 70
   192
  0
VERTEX
  8
pSphere1
 10
0.292372
 20
-0.956305
 30
0.000000
 70
   192
  0
VERTEX
  8
pSphere1
 10
0.573577
 20
-0.819152
 30
0.000000
 70
   192
  0
VERTEX
  8
pSphere1
 10
0.798636
 20
-0.601815
 30
0.000000
 70
   192
  0
VERTEX
  8
pSphere1
 10
0.945519
 20
-0.325568
 30
0.000000
 70
   192
  0
VERTEX
  8
pSphere1
 10
0.999848
 20
-0.017452
 30
0.000000
 70
   192
  0
VERTEX
  8
pSphere1
 10
0.956305
 20
0.292372
 30
0.000000
 70
   192
  0
VERTEX
  8
pSphere1
 10
0.819152
 20
0.573577
 30
0.000000
 70
   192
  0
VERTEX
  8
pSphere1
 10
0.601815
 20
0.798636
 30
0.000000
 70
   192
  0
VERTEX
  8
pSphere1
 10
0.325568
 20
0.945519
 30
0.000000
 70
   192
  0
VERTEX
  8
pSphere1
 10
0.017452
 20
0.999848
 30
0.000000
 70
   192
  0
VERTEX
  8
pSphere1
 10
-0.292372
 20
0.956305
 30
0.000000
 70
   192
  0
VERTEX
  8
pSphere1
 10
-0.573576
 20
0.819152
 30
0.000000
 70
   192
  0
VERTEX
  8
pSphere1
 10
-0.798636
 20
0.601815
 30
0.000000
 70
   192
  0
VERTEX
  8
pSphere1
 10
-0.945519
 20
0.325568
 30
0.000000
 70
   192
  0
VERTEX
  8
pSphere1
 10
-0.999848
 20
0.017452
 30
0.000000
 70
   192
  0
VERTEX
  8
pSphere1
 10
-0.944532
 20
-0.288772
 30
0.156434
 70
   192
  0
VERTEX
  8
pSphere1
 10
-0.809067
 20
-0.566515
 30
0.156434
 70
   192
  0
VERTEX
  8
pSphere1
 10
-0.594406
 20
-0.788803
 30
0.156434
 70
   192
  0
VERTEX
  8
pSphere1
 10
-0.321560
 20
-0.933878
 30
0.156434
 70
   192
  0
VERTEX
  8
pSphere1
 10
-0.017238
 20
-0.987538
 30
0.156434
 70
   192
  0
VERTEX
  8
pSphere1
 10
0.288772
 20
-0.944531
 30
0.156434
 70
   192
  0
VERTEX
  8
pSphere1
 10
0.566515
 20
-0.809067
 30
0.156434
 70
   192
  0
VERTEX
  8
pSphere1
 10
0.788803
 20
-0.594406
 30
0.156434
 70
   192
  0
VERTEX
  8
pSphere1
 10
0.933878
 20
-0.321560
 30
0.156434
 70
   192
  0
VERTEX
  8
pSphere1
 10
0.987538
 20
-0.017238
 30
0.156434
 70
   192
  0
VERTEX
  8
pSphere1
 10
0.944531
 20
0.288772
 30
0.156434
 70
   192
  0
VERTEX
  8
pSphere1
 10
0.809067
 20
0.566515
 30
0.156434
 70
   192
  0
VERTEX
  8
pSphere1
 10
0.594406
 20
0.788803
 30
0.156434
 70
   192
  0
VERTEX
  8
pSphere1
 10
0.321560
 20
0.933878
 30
0.156434
 70
   192
  0
VERTEX
  8
pSphere1
 10
0.017238
 20
0.987538
 30
0.156434
 70
   192
  0
VERTEX
  8
pSphere1
 10
-0.288772
 20
0.944531
 30
0.156434
 70
   192
  0
VERTEX
  8
pSphere1
 10
-0.566515
 20
0.809067
 30
0.156434
 70
   192
  0
VERTEX
  8
pSphere1
 10
-0.788803
 20
0.594406
 30
0.156434
 70
   192
  0
VERTEX
  8
pSphere1
 10
-0.933878
 20
0.321560
 30
0.156434
 70
   192
  0
VERTEX
  8
pSphere1
 10
-0.987538
 20
0.017238
 30
0.156434
 70
   192
  0
VERTEX
  8
pSphere1
 10
-0.909501
 20
-0.278062
 30
0.309017
 70
   192
  0
VERTEX
  8
pSphere1
 10
-0.779060
 20
-0.545504
 30
0.309017
 70
   192
  0
VERTEX
  8
pSphere1
 10
-0.572360
 20
-0.759548
 30
0.309017
 70
   192
  0
VERTEX
  8
pSphere1
 10
-0.309634
 20
-0.899242
 30
0.309017
 70
   192
  0
VERTEX
  8
pSphere1
 10
-0.016598
 20
-0.950912
 30
0.309017
 70
   192
  0
VERTEX
  8
pSphere1
 10
0.278062
 20
-0.909500
 30
0.309017
 70
   192
  0
VERTEX
  8
pSphere1
 10
0.545504
 20
-0.779060
 30
0.309017
 70
   192
  0
VERTEX
  8
pSphere1
 10
0.759548
 20
-0.572360
 30
0.309017
 70
   192
  0
VERTEX
  8
pSphere1
 10
0.899242
 20
-0.309634
 30
0.309017
 70
   192
  0
VERTEX
  8
pSphere1
 10
0.950912
 20
-0.016598
 30
0.309017
 70
   192
  0
VERTEX
  8
pSphere1
 10
0.909500
 20
0.278062
 30
0.309017
 70
   192
  0
VERTEX
  8
pSphere1
 10
0.779060
 20
0.545504
 30
0.309017
 70
   192
  0
VERTEX
  8
pSphere1
 10
0.572360
 20
0.759548
 30
0.309017
 70
   192
  0
VERTEX
  8
pSphere1
 10
0.309634
 20
0.899242
 30
0.309017
 70
   192
  0
VERTEX
  8
pSphere1
 10
0.016598
 20
0.950912
 30
0.309017
 70
   192
  0
VERTEX
  8
pSphere1
 10
-0.278062
 20
0.909500
 30
0.309017
 70
   192
  0
VERTEX
  8
pSphere1
 10
-0.545504
 20
0.779060
 30
0.309017
 70
   192
  0
VERTEX
  8
pSphere1
 10
-0.759548
 20
0.572360
 30
0.309017
 70
   192
  0
VERTEX
  8
pSphere1
 10
-0.899242
 20
0.309634
 30
0.309017
 70
   192
  0
VERTEX
  8
pSphere1
 10
-0.950912
 20
0.016598
 30
0.309017
 70
   192
  0
VERTEX
  8
pSphere1
 10
-0.852074
 20
-0.260505
 30
0.453991
 70
   192
  0
VERTEX
  8
pSphere1
 10
-0.729870
 20
-0.511061
 30
0.453991
 70
   192
  0
VERTEX
  8
pSphere1
 10
-0.536221
 20
-0.711590
 30
0.453991
 70
   192
  0
VERTEX
  8
pSphere1
 10
-0.290083
 20
-0.842464
 30
0.453991
 70
   192
  0
VERTEX
  8
pSphere1
 10
-0.015550
 20
-0.890871
 30
0.453991
 70
   192
  0
VERTEX
  8
pSphere1
 10
0.260505
 20
-0.852074
 30
0.453991
 70
   192
  0
VERTEX
  8
pSphere1
 10
0.511061
 20
-0.729870
 30
0.453991
 70
   192
  0
VERTEX
  8
pSphere1
 10
0.711590
 20
-0.536221
 30
0.453991
 70
   192
  0
VERTEX
  8
pSphere1
 10
0.842463
 20
-0.290083
 30
0.453991
 70
   192
  0
VERTEX
  8
pSphere1
 10
0.890871
 20
-0.015550
 30
0.453991
 70
   192
  0
VERTEX
  8
pSphere1
 10
0.852074
 20
0.260505
 30
0.453991
 70
   192
  0
VERTEX
  8
pSphere1
 10
0.729870
 20
0.511060
 30
0.453991
 70
   192
  0
VERTEX
  8
pSphere1
 10
0.536221
 20
0.711590
 30
0.453991
 70
   192
  0
VERTEX
  8
pSphere1
 10
0.290083
 20
0.842463
 30
0.453991
 70
   192
  0
VERTEX
  8
pSphere1
 10
0.015550
 20
0.890871
 30
0.453991
 70
   192
  0
VERTEX
  8
pSphere1
 10
-0.260505
 20
0.852074
 30
0.453991
 70
   192
  0
VERTEX
  8
pSphere1
 10
-0.511060
 20
0.729870
 30
0.453991
 70
   192
  0
VERTEX
  8
pSphere1
 10
-0.711589
 20
0.536221
 30
0.453991
 70
   192
  0
VERTEX
  8
pSphere1
 10
-0.842463
 20
0.290083
 30
0.453991
 70
   192
  0
VERTEX
  8
pSphere1
 10
-0.890871
 20
0.015550
 30
0.453991
 70
   192
  0
VERTEX
  8
pSphere1
 10
-0.773667
 20
-0.236534
 30
0.587785
 70
   192
  0
VERTEX
  8
pSphere1
 10
-0.662708
 20
-0.464033
 30
0.587785
 70
   192
  0
VERTEX
  8
pSphere1
 10
-0.486879
 20
-0.646110
 30
0.587785
 70
   192
  0
VERTEX
  8
pSphere1
 10
-0.263390
 20
-0.764941
 30
0.587785
 70
   192
  0
VERTEX
  8
pSphere1
 10
-0.014119
 20
-0.808894
 30
0.587785
 70
   192
  0
VERTEX
  8
pSphere1
 10
0.236534
 20
-0.773667
 30
0.587785
 70
   192
  0
VERTEX
  8
pSphere1
 10
0.464033
 20
-0.662708
 30
0.587785
 70
   192
  0
VERTEX
  8
pSphere1
 10
0.646110
 20
-0.486879
 30
0.587785
 70
   192
  0
VERTEX
  8
pSphere1
 10
0.764941
 20
-0.263390
 30
0.587785
 70
   192
  0
VERTEX
  8
pSphere1
 10
0.808894
 20
-0.014119
 30
0.587785
 70
   192
  0
VERTEX
  8
pSphere1
 10
0.773667
 20
0.236534
 30
0.587785
 70
   192
  0
VERTEX
  8
pSphere1
 10
0.662708
 20
0.464033
 30
0.587785
 70
   192
  0
VERTEX
  8
pSphere1
 10
0.486879
 20
0.646110
 30
0.587785
 70
   192
  0
VERTEX
  8
pSphere1
 10
0.263390
 20
0.764941
 30
0.587785
 70
   192
  0
VERTEX
  8
pSphere1
 10
0.014119
 20
0.808894
 30
0.587785
 70
   192
  0
VERTEX
  8
pSphere1
 10
-0.236534
 20
0.773667
 30
0.587785
 70
   192
  0
VERTEX
  8
pSphere1
 10
-0.464033
 20
0.662708
 30
0.587785
 70
   192
  0
VERTEX
  8
pSphere1
 10
-0.646110
 20
0.486879
 30
0.587785
 70
   192
  0
VERTEX
  8
pSphere1
 10
-0.764941
 20
0.263390
 30
0.587785
 70
   192
  0
VERTEX
  8
pSphere1
 10
-0.808894
 20
0.014119
 30
0.587785
 70
   192
  0
VERTEX
  8
pSphere1
 10
-0.676210
 20
-0.206738
 30
0.707107
 70
   192
  0
VERTEX
  8
pSphere1
 10
-0.579228
 20
-0.405580
 30
0.707107
 70
   192
  0
VERTEX
  8
pSphere1
 10
-0.425548
 20
-0.564721
 30
0.707107
 70
   192
  0
VERTEX
  8
pSphere1
 10
-0.230212
 20
-0.668583
 30
0.707107
 70
   192
  0
VERTEX
  8
pSphere1
 10
-0.012341
 20
-0.706999
 30
0.707107
 70
   192
  0
VERTEX
  8
pSphere1
 10
0.206738
 20
-0.676210
 30
0.707107
 70
   192
  0
VERTEX
  8
pSphere1
 10
0.405580
 20
-0.579228
 30
0.707107
 70
   192
  0
VERTEX
  8
pSphere1
 10
0.564721
 20
-0.425548
 30
0.707107
 70
   192
  0
VERTEX
  8
pSphere1
 10
0.668583
 20
-0.230211
 30
0.707107
 70
   192
  0
VERTEX
  8
pSphere1
 10
0.706999
 20
-0.012341
 30
0.707107
 70
   192
  0
VERTEX
  8
pSphere1
 10
0.676210
 20
0.206738
 30
0.707107
 70
   192
  0
VERTEX
  8
pSphere1
 10
0.579228
 20
0.405580
 30
0.707107
 70
   192
  0
VERTEX
  8
pSphere1
 10
0.425548
 20
0.564721
 30
0.707107
 70
   192
  0
VERTEX
  8
pSphere1
 10
0.230211
 20
0.668583
 30
0.707107
 70
   192
  0
VERTEX
  8
pSphere1
 10
0.012341
 20
0.706999
 30
0.707107
 70
   192
  0
VERTEX
  8
pSphere1
 10
-0.206738
 20
0.676210
 30
0.707107
 70
   192
  0
VERTEX
  8
pSphere1
 10
-0.405580
 20
0.579228
 30
0.707107
 70
   192
  0
VERTEX
  8
pSphere1
 10
-0.564721
 20
0.425548
 30
0.707107
 70
   192
  0
VERTEX
  8
pSphere1
 10
-0.668583
 20
0.230211
 30
0.707107
 70
   192
  0
VERTEX
  8
pSphere1
 10
-0.706999
 20
0.012341
 30
0.707107
 70
   192
  0
VERTEX
  8
pSphere1
 10
-0.562102
 20
-0.171852
 30
0.809017
 70
   192
  0
VERTEX
  8
pSphere1
 10
-0.481486
 20
-0.337140
 30
0.809017
 70
   192
  0
VERTEX
  8
pSphere1
 10
-0.353738
 20
-0.469427
 30
0.809017
 70
   192
  0
VERTEX
  8
pSphere1
 10
-0.191364
 20
-0.555762
 30
0.809017
 70
   192
  0
VERTEX
  8
pSphere1
 10
-0.010258
 20
-0.587696
 30
0.809017
 70
   192
  0
VERTEX
  8
pSphere1
 10
0.171852
 20
-0.562102
 30
0.809017
 70
   192
  0
VERTEX
  8
pSphere1
 10
0.337140
 20
-0.481486
 30
0.809017
 70
   192
  0
VERTEX
  8
pSphere1
 10
0.469426
 20
-0.353738
 30
0.809017
 70
   192
  0
VERTEX
  8
pSphere1
 10
0.555762
 20
-0.191364
 30
0.809017
 70
   192
  0
VERTEX
  8
pSphere1
 10
0.587696
 20
-0.010258
 30
0.809017
 70
   192
  0
VERTEX
  8
pSphere1
 10
0.562102
 20
0.171852
 30
0.809017
 70
   192
  0
VERTEX
  8
pSphere1
 10
0.481486
 20
0.337140
 30
0.809017
 70
   192
  0
VERTEX
  8
pSphere1
 10
0.353738
 20
0.469426
 30
0.809017
 70
   192
  0
VERTEX
  8
pSphere1
 10
0.191364
 20
0.555762
 30
0.809017
 70
   192
  0
VERTEX
  8
pSphere1
 10
0.010258
 20
0.587696
 30
0.809017
 70
   192
  0
VERTEX
  8
pSphere1
 10
-0.171852
 20
0.562102
 30
0.809017
 70
   192
  0
VERTEX
  8
pSphere1
 10
-0.337140
 20
0.481486
 30
0.809017
 70
   192
  0
VERTEX
  8
pSphere1
 10
-0.469426
 20
0.353738
 30
0.809017
 70
   192
  0
VERTEX
  8
pSphere1
 10
-0.555762
 20
0.191364
 30
0.809017
 70
   192
  0
VERTEX
  8
pSphere1
 10
-0.587696
 20
0.010258
 30
0.809017
 70
   192
  0
VERTEX
  8
pSphere1
 10
-0.434154
 20
-0.132734
 30
0.891007
 70
   192
  0
VERTEX
  8
pSphere1
 10
-0.371888
 20
-0.260398
 30
0.891007
 70
   192
  0
VERTEX
  8
pSphere1
 10
-0.273218
 20
-0.362573
 30
0.891007
 70
   192
  0
VERTEX
  8
pSphere1
 10
-0.147805
 20
-0.429257
 30
0.891007
 70
   192
  0
VERTEX
  8
pSphere1
 10
-0.007923
 20
-0.453922
 30
0.891007
 70
   192
  0
VERTEX
  8
pSphere1
 10
0.132734
 20
-0.434153
 30
0.891007
 70
   192
  0
VERTEX
  8
pSphere1
 10
0.260398
 20
-0.371887
 30
0.891007
 70
   192
  0
VERTEX
  8
pSphere1
 10
0.362573
 20
-0.273218
 30
0.891007
 70
   192
  0
VERTEX
  8
pSphere1
 10
0.429257
 20
-0.147805
 30
0.891007
 70
   192
  0
VERTEX
  8
pSphere1
 10
0.453921
 20
-0.007923
 30
0.891007
 70
   192
  0
VERTEX
  8
pSphere1
 10
0.434153
 20
0.132734
 30
0.891007
 70
   192
  0
VERTEX
  8
pSphere1
 10
0.371887
 20
0.260398
 30
0.891007
 70
   192
  0
VERTEX
  8
pSphere1
 10
0.273218
 20
0.362573
 30
0.891007
 70
   192
  0
VERTEX
  8
pSphere1
 10
0.147805
 20
0.429257
 30
0.891007
 70
   192
  0
VERTEX
  8
pSphere1
 10
0.007923
 20
0.453921
 30
0.891007
 70
   192
  0
VERTEX
  8
pSphere1
 10
-0.132734
 20
0.434153
 30
0.891007
 70
   192
  0
VERTEX
  8
pSphere1
 10
-0.260398
 20
0.371887
 30
0.891007
 70
   192
  0
VERTEX
  8
pSphere1
 10
-0.362573
 20
0.273218
 30
0.891007
 70
   192
  0
VERTEX
  8
pSphere1
 10
-0.429256
 20
0.147805
 30
0.891007
 70
   192
  0
VERTEX
  8
pSphere1
 10
-0.453921
 20
0.007923
 30
0.891007
 70
   192
  0
VERTEX
  8
pSphere1
 10
-0.295515
 20
-0.090348
 30
0.951057
 70
   192
  0
VERTEX
  8
pSphere1
 10
-0.253132
 20
-0.177245
 30
0.951057
 70
   192
  0
VERTEX
  8
pSphere1
 10
-0.185971
 20
-0.246792
 30
0.951057
 70
   192
  0
VERTEX
  8
pSphere1
 10
-0.100606
 20
-0.292181
 30
0.951057
 70
   192
  0
VERTEX
  8
pSphere1
 10
-0.005393
 20
-0.308970
 30
0.951057
 70
   192
  0
VERTEX
  8
pSphere1
 10
0.090348
 20
-0.295515
 30
0.951057
 70
   192
  0
VERTEX
  8
pSphere1
 10
0.177245
 20
-0.253132
 30
0.951057
 70
   192
  0
VERTEX
  8
pSphere1
 10
0.246792
 20
-0.185971
 30
0.951057
 70
   192
  0
VERTEX
  8
pSphere1
 10
0.292181
 20
-0.100606
 30
0.951057
 70
   192
  0
VERTEX
  8
pSphere1
 10
0.308970
 20
-0.005393
 30
0.951057
 70
   192
  0
VERTEX
  8
pSphere1
 10
0.295515
 20
0.090348
 30
0.951057
 70
   192
  0
VERTEX
  8
pSphere1
 10
0.253132
 20
0.177245
 30
0.951057
 70
   192
  0
VERTEX
  8
pSphere1
 10
0.185971
 20
0.246792
 30
0.951057
 70
   192
  0
VERTEX
  8
pSphere1
 10
0.100606
 20
0.292181
 30
0.951057
 70
   192
  0
VERTEX
  8
pSphere1
 10
0.005393
 20
0.308970
 30
0.951057
 70
   192
  0
VERTEX
  8
pSphere1
 10
-0.090348
 20
0.295514
 30
0.951057
 70
   192
  0
VERTEX
  8
pSphere1
 10
-0.177245
 20
0.253132
 30
0.951057
 70
   192
  0
VERTEX
  8
pSphere1
 10
-0.246792
 20
0.185971
 30
0.951057
 70
   192
  0
VERTEX
  8
pSphere1
 10
-0.292181
 20
0.100606
 30
0.951057
 70
   192
  0
VERTEX
  8
pSphere1
 10
-0.308970
 20
0.005393
 30
0.951057
 70
   192
  0
VERTEX
  8
pSphere1
 10
-0.149599
 20
-0.045737
 30
0.987688
 70
   192
  0
VERTEX
  8
pSphere1
 10
-0.128144
 20
-0.089727
 30
0.987688
 70
   192
  0
VERTEX
  8
pSphere1
 10
-0.094145
 20
-0.124934
 30
0.987688
 70
   192
  0
VERTEX
  8
pSphere1
 10
-0.050930
 20
-0.147912
 30
0.987688
 70
   192
  0
VERTEX
  8
pSphere1
 10
-0.002730
 20
-0.156411
 30
0.987688
 70
   192
  0
VERTEX
  8
pSphere1
 10
0.045737
 20
-0.149599
 30
0.987688
 70
   192
  0
VERTEX
  8
pSphere1
 10
0.089727
 20
-0.128144
 30
0.987688
 70
   192
  0
VERTEX
  8
pSphere1
 10
0.124934
 20
-0.094145
 30
0.987688
 70
   192
  0
VERTEX
  8
pSphere1
 10
0.147912
 20
-0.050930
 30
0.987688
 70
   192
  0
VERTEX
  8
pSphere1
 10
0.156411
 20
-0.002730
 30
0.987688
 70
   192
  0
VERTEX
  8
pSphere1
 10
0.149599
 20
0.045737
 30
0.987688
 70
   192
  0
VERTEX
  8
pSphere1
 10
0.128144
 20
0.089727
 30
0.987688
 70
   192
  0
VERTEX
  8
pSphere1
 10
0.094145
 20
0.124934
 30
0.987688
 70
   192
  0
VERTEX
  8
pSphere1
 10
0.050930
 20
0.147912
 30
0.987688
 70
   192
  0
VERTEX
  8
pSphere1
 10
0.002730
 20
0.156411
 30
0.987688
 70
   192
  0
VERTEX
  8
pSphere1
 10
-0.045737
 20
0.149599
 30
0.987688
 70
   192
  0
VERTEX
  8
pSphere1
 10
-0.089727
 20
0.128144
 30
0.987688
 70
   192
  0
VERTEX
  8
pSphere1
 10
-0.124934
 20
0.094145
 30
0.987688
 70
   192
  0
VERTEX
  8
pSphere1
 10
-0.147912
 20
0.050930
 30
0.987688
 70
   192
  0
VERTEX
  8
pSphere1
 10
-0.156411
 20
0.002730
 30
0.987688
 70
   192
  0
VERTEX
  8
pSphere1
 10
0.000000
 20
-0.000000
 30
-1.000000
 70
   192
  0
VERTEX
  8
pSphere1
 10
0.000000
 20
-0.000000
 30
1.000000
 70
   192
  0
VERTEX
  8
pSphere1
 62
   254
 10
0.0
 20
0.0
 30
0.0
 70
   128
 71
   22
 72
   2
 73
   1
  0
VERTEX
  8
pSphere1
 62
   254
 10
0.0
 20
0.0
 30
0.0
 70
   128
 71
   1
 72
   21
 73
   22
  0
VERTEX
  8
pSphere1
 62
   254
 10
0.0
 20
0.0
 30
0.0
 70
   128
 71
   23
 72
   3
 73
   2
  0
VERTEX
  8
pSphere1
 62
   254
 10
0.0
 20
0.0
 30
0.0
 70
   128
 71
   2
 72
   22
 73
   23
  0
VERTEX
  8
pSphere1
 62
   254
 10
0.0
 20
0.0
 30
0.0
 70
   128
 71
   24
 72
   4
 73
   3
  0
VERTEX
  8
pSphere1
 62
   254
 10
0.0
 20
0.0
 30
0.0
 70
   128
 71
   3
 72
   23
 73
   24
  0
VERTEX
  8
pSphere1
 62
   254
 10
0.0
 20
0.0
 30
0.0
 70
   128
 71
   25
 72
   5
 73
   4
  0
VERTEX
  8
pSphere1
 62
   254
 10
0.0
 20
0.0
 30
0.0
 70
   128
 71
   4
 72
   24
 73
   25
  0
VERTEX
  8
pSphere1
 62
   254
 10
0.0
 20
0.0
 30
0.0
 70
   128
 71
   26
 72
   6
 73
   5
  0
VERTEX
  8
pSphere1
 62
   254
 10
0.0
 20
0.0
 30
0.0
 70
   128
 71
   5
 72
   25
 73
   26
  0
VERTEX
  8
pSphere1
 62
   254
 10
0.0
 20
0.0
 30
0.0
 70
   128
 71
   27
 72
   7
 73
   6
  0
VERTEX
  8
pSphere1
 62
   254
 10
0.0
 20
0.0
 30
0.0
 70
   128
 71
   6
 72
   26
 73
   27
  0
VERTEX
  8
pSphere1
 62
   254
 10
0.0
 20
0.0
 30
0.0
 70
   128
 71
   28
 72
   8
 73
   7
  0
VERTEX
  8
pSphere1
 62
   254
 10
0.0
 20
0.0
 30
0.0
 70
   128
 71
   7
 72
   27
 73
   28
  0
VERTEX
  8
pSphere1
 62
   254
 10
0.0
 20
0.0
 30
0.0
 70
   128
 71
   29
 72
   9
 73
   8
  0
VERTEX
  8
pSphere1
 62
   254
 10
0.0
 20
0.0
 30
0.0
 70
   128
 71
   8
 72
   28
 73
   29
  0
VERTEX
  8
pSphere1
 62
   254
 10
0.0
 20
0.0
 30
0.0
 70
   128
 71
   30
 72
   10
 73
   9
  0
VERTEX
  8
pSphere1
 62
   254
 10
0.0
 20
0.0
 30
0.0
 70
   128
 71
   9
 72
   29
 73
   30
  0
VERTEX
  8
pSphere1
 62
   254
 10
0.0
 20
0.0
 30
0.0
 70
   128
 71
   31
 72
   11
 73
   10
  0
VERTEX
  8
pSphere1
 62
   254
 10
0.0
 20
0.0
 30
0.0
 70
   128
 71
   10
 72
   30
 73
   31
  0
VERTEX
  8
pSphere1
 62
   254
 10
0.0
 20
0.0
 30
0.0
 70
   128
 71
   32
 72
   12
 73
   11
  0
VERTEX
  8
pSphere1
 62
   254
 10
0.0
 20
0.0
 30
0.0
 70
   128
 71
   11
 72
   31
 73
   32
  0
VERTEX
  8
pSphere1
 62
   254
 10
0.0
 20
0.0
 30
0.0
 70
   128
 71
   33
 72
   13
 73
   12
  0
VERTEX
  8
pSphere1
 62
   254
 10
0.0
 20
0.0
 30
0.0
 70
   128
 71
   12
 72
   32
 73
   33
  0
VERTEX
  8
pSphere1
 62
   254
 10
0.0
 20
0.0
 30
0.0
 70
   128
 71
   34
 72
   14
 73
   13
  0
VERTEX
  8
pSphere1
 62
   254
 10
0.0
 20
0.0
 30
0.0
 70
   128
 71
   13
 72
   33
 73
   34
  0
VERTEX
  8
pSphere1
 62
   254
 10
0.0
 20
0.0
 30
0.0
 70
   128
 71
   35
 72
   15
 73
   14
  0
VERTEX
  8
pSphere1
 62
   254
 10
0.0
 20
0.0
 30
0.0
 70
   128
 71
   14
 72
   34
 73
   35
  0
VERTEX
  8
pSphere1
 62
   254
 10
0.0
 20
0.0
 30
0.0
 70
   128
 71
   36
 72
   16
 73
   15
  0
VERTEX
  8
pSphere1
 62
   254
 10
0.0
 20
0.0
 30
0.0
 70
   128
 71
   15
 72
   35
 73
   36
  0
VERTEX
  8
pSphere1
 62
   254
 10
0.0
 20
0.0
 30
0.0
 70
   128
 71
   37
 72
   17
 73
   16
  0
VERTEX
  8
pSphere1
 62
   254
 10
0.0
 20
0.0
 30
0.0
 70
   128
 71
   16
 72
   36
 73
   37
  0
VERTEX
  8
pSphere1
 62
   254
 10
0.0
 20
0.0
 30
0.0
 70
   128
 71
   38
 72
   18
 73
   17
  0
VERTEX
  8
pSphere1
 62
   254
 10
0.0
 20
0.0
 30
0.0
 70
   128
 71
   17
 72
   37
 73
   38
  0
VERTEX
  8
pSphere1
 62
   254
 10
0.0
 20
0.0
 30
0.0
 70
   128
 71
   39
 72
   19
 73
   18
  0
VERTEX
  8
pSphere1
 62
   254
 10
0.0
 20
0.0
 30
0.0
 70
   128
 71
   18
 72
   38
 73
   39
  0
VERTEX
  8
pSphere1
 62
   254
 10
0.0
 20
0.0
 30
0.0
 70
   128
 71
   40
 72
   20
 73
   19
  0
VERTEX
  8
pSphere1
 62
   254
 10
0.0
 20
0.0
 30
0.0
 70
   128
 71
   19
 72
   39
 73
   40
  0
VERTEX
  8
pSphere1
 62
   254
 10
0.0
 20
0.0
 30
0.0
 70
   128
 71
   21
 72
   1
 73
   20
  0
VERTEX
  8
pSphere1
 62
   254
 10
0.0
 20
0.0
 30
0.0
 70
   128
 71
   20
 72
   40
 73
   21
  0
VERTEX
  8
pSphere1
 62
   254
 10
0.0
 20
0.0
 30
0.0
 70
   128
 71
   42
 72
   22
 73
   21
  0
VERTEX
  8
pSphere1
 62
   254
 10
0.0
 20
0.0
 30
0.0
 70
   128
 71
   21
 72
   41
 73
   42
  0
VERTEX
  8
pSphere1
 62
   254
 10
0.0
 20
0.0
 30
0.0
 70
   128
 71
   43
 72
   23
 73
   22
  0
VERTEX
  8
pSphere1
 62
   254
 10
0.0
 20
0.0
 30
0.0
 70
   128
 71
   22
 72
   42
 73
   43
  0
VERTEX
  8
pSphere1
 62
   254
 10
0.0
 20
0.0
 30
0.0
 70
   128
 71
   44
 72
   24
 73
   23
  0
VERTEX
  8
pSphere1
 62
   254
 10
0.0
 20
0.0
 30
0.0
 70
   128
 71
   23
 72
   43
 73
   44
  0
VERTEX
  8
pSphere1
 62
   254
 10
0.0
 20
0.0
 30
0.0
 70
   128
 71
   45
 72
   25
 73
   24
  0
VERTEX
  8
pSphere1
 62
   254
 10
0.0
 20
0.0
 30
0.0
 70
   128
 71
   24
 72
   44
 73
   45
  0
VERTEX
  8
pSphere1
 62
   254
 10
0.0
 20
0.0
 30
0.0
 70
   128
 71
   46
 72
   26
 73
   25
  0
VERTEX
  8
pSphere1
 62
   254
 10
0.0
 20
0.0
 30
0.0
 70
   128
 71
   25
 72
   45
 73
   46
  0
VERTEX
  8
pSphere1
 62
   254
 10
0.0
 20
0.0
 30
0.0
 70
   128
 71
   47
 72
   27
 73
   26
  0
VERTEX
  8
pSphere1
 62
   254
 10
0.0
 20
0.0
 30
0.0
 70
   128
 71
   26
 72
   46
 73
   47
  0
VERTEX
  8
pSphere1
 62
   254
 10
0.0
 20
0.0
 30
0.0
 70
   128
 71
   48
 72
   28
 73
   27
  0
VERTEX
  8
pSphere1
 62
   254
 10
0.0
 20
0.0
 30
0.0
 70
   128
 71
   27
 72
   47
 73
   48
  0
VERTEX
  8
pSphere1
 62
   254
 10
0.0
 20
0.0
 30
0.0
 70
   128
 71
   49
 72
   29
 73
   28
  0
VERTEX
  8
pSphere1
 62
   254
 10
0.0
 20
0.0
 30
0.0
 70
   128
 71
   28
 72
   48
 73
   49
  0
VERTEX
  8
pSphere1
 62
   254
 10
0.0
 20
0.0
 30
0.0
 70
   128
 71
   50
 72
   30
 73
   29
  0
VERTEX
  8
pSphere1
 62
   254
 10
0.0
 20
0.0
 30
0.0
 70
   128
 71
   29
 72
   49
 73
   50
  0
VERTEX
  8
pSphere1
 62
   254
 10
0.0
 20
0.0
 30
0.0
 70
   128
 71
   51
 72
   31
 73
   30
  0
VERTEX
  8
pSphere1
 62
   254
 10
0.0
 20
0.0
 30
0.0
 70
   128
 71
   30
 72
   50
 73
   51
  0
VERTEX
  8
pSphere1
 62
   254
 10
0.0
 20
0.0
 30
0.0
 70
   128
 71
   52
 72
   32
 73
   31
  0
VERTEX
  8
pSphere1
 62
   254
 10
0.0
 20
0.0
 30
0.0
 70
   128
 71
   31
 72
   51
 73
   52
  0
VERTEX
  8
pSphere1
 62
   254
 10
0.0
 20
0.0
 30
0.0
 70
   128
 71
   53
 72
   33
 73
   32
  0
VERTEX
  8
pSphere1
 62
   254
 10
0.0
 20
0.0
 30
0.0
 70
   128
 71
   32
 72
   52
 73
   53
  0
VERTEX
  8
pSphere1
 62
   254
 10
0.0
 20
0.0
 30
0.0
 70
   128
 71
   54
 72
   34
 73
   33
  0
VERTEX
  8
pSphere1
 62
   254
 10
0.0
 20
0.0
 30
0.0
 70
   128
 71
   33
 72
   53
 73
   54
  0
VERTEX
  8
pSphere1
 62
   254
 10
0.0
 20
0.0
 30
0.0
 70
   128
 71
   55
 72
   35
 73
   34
  0
VERTEX
  8
pSphere1
 62
   254
 10
0.0
 20
0.0
 30
0.0
 70
   128
 71
   34
 72
   54
 73
   55
  0
VERTEX
  8
pSphere1
 62
   254
 10
0.0
 20
0.0
 30
0.0
 70
   128
 71
   56
 72
   36
 73
   35
  0
VERTEX
  8
pSphere1
 62
   254
 10
0.0
 20
0.0
 30
0.0
 70
   128
 71
   35
 72
   55
 73
   56
  0
VERTEX
  8
pSphere1
 62
   254
 10
0.0
 20
0.0
 30
0.0
 70
   128
 71
   57
 72
   37
 73
   36
  0
VERTEX
  8
pSphere1
 62
   254
 10
0.0
 20
0.0
 30
0.0
 70
   128
 71
   36
 72
   56
 73
   57
  0
VERTEX
  8
pSphere1
 62
   254
 10
0.0
 20
0.0
 30
0.0
 70
   128
 71
   58
 72
   38
 73
   37
  0
VERTEX
  8
pSphere1
 62
   254
 10
0.0
 20
0.0
 30
0.0
 70
   128
 71
   37
 72
   57
 73
   58
  0
VERTEX
  8
pSphere1
 62
   254
 10
0.0
 20
0.0
 30
0.0
 70
   128
 71
   59
 72
   39
 73
   38
  0
VERTEX
  8
pSphere1
 62
   254
 10
0.0
 20
0.0
 30
0.0
 70
   128
 71
   38
 72
   58
 73
   59
  0
VERTEX
  8
pSphere1
 62
   254
 10
0.0
 20
0.0
 30
0.0
 70
   128
 71
   60
 72
   40
 73
   39
  0
VERTEX
  8
pSphere1
 62
   254
 10
0.0
 20
0.0
 30
0.0
 70
   128
 71
   39
 72
   59
 73
   60
  0
VERTEX
  8
pSphere1
 62
   254
 10
0.0
 20
0.0
 30
0.0
 70
   128
 71
   41
 72
   21
 73
   40
  0
VERTEX
  8
pSphere1
 62
   254
 10
0.0
 20
0.0
 30
0.0
 70
   128
 71
   40
 72
   60
 73
   41
  0
VERTEX
  8
pSphere1
 62
   254
 10
0.0
 20
0.0
 30
0.0
 70
   128
 71
   62
 72
   42
 73
   41
  0
VERTEX
  8
pSphere1
 62
   254
 10
0.0
 20
0.0
 30
0.0
 70
   128
 71
   41
 72
   61
 73
   62
  0
VERTEX
  8
pSphere1
 62
   254
 10
0.0
 20
0.0
 30
0.0
 70
   128
 71
   63
 72
   43
 73
   42
  0
VERTEX
  8
pSphere1
 62
   254
 10
0.0
 20
0.0
 30
0.0
 70
   128
 71
   42
 72
   62
 73
   63
  0
VERTEX
  8
pSphere1
 62
   254
 10
0.0
 20
0.0
 30
0.0
 70
   128
 71
   64
 72
   44
 73
   43
  0
VERTEX
  8
pSphere1
 62
   254
 10
0.0
 20
0.0
 30
0.0
 70
   128
 71
   43
 72
   63
 73
   64
  0
VERTEX
  8
pSphere1
 62
   254
 10
0.0
 20
0.0
 30
0.0
 70
   128
 71
   65
 72
   45
 73
   44
  0
VERTEX
  8
pSphere1
 62
   254
 10
0.0
 20
0.0
 30
0.0
 70
   128
 71
   44
 72
   64
 73
   65
  0
VERTEX
  8
pSphere1
 62
   254
 10
0.0
 20
0.0
 30
0.0
 70
   128
 71
   66
 72
   46
 73
   45
  0
VERTEX
  8
pSphere1
 62
   254
 10
0.0
 20
0.0
 30
0.0
 70
   128
 71
   45
 72
   65
 73
   66
  0
VERTEX
  8
pSphere1
 62
   254
 10
0.0
 20
0.0
 30
0.0
 70
   128
 71
   67
 72
   47
 73
   46
  0
VERTEX
  8
pSphere1
 62
   254
 10
0.0
 20
0.0
 30
0.0
 70
   128
 71
   46
 72
   66
 73
   67
  0
VERTEX
  8
pSphere1
 62
   254
 10
0.0
 20
0.0
 30
0.0
 70
   128
 71
   68
 72
   48
 73
   47
  0
VERTEX
  8
pSphere1
 62
   254
 10
0.0
 20
0.0
 30
0.0
 70
   128
 71
   47
 72
   67
 73
   68
  0
VERTEX
  8
pSphere1
 62
   254
 10
0.0
 20
0.0
 30
0.0
 70
   128
 71
   69
 72
   49
 73
   48
  0
VERTEX
  8
pSphere1
 62
   254
 10
0.0
 20
0.0
 30
0.0
 70
   128
 71
   48
 72
   68
 73
   69
  0
VERTEX
  8
pSphere1
 62
   254
 10
0.0
 20
0.0
 30
0.0
 70
   128
 71
   70
 72
   50
 73
   49
  0
VERTEX
  8
pSphere1
 62
   254
 10
0.0
 20
0.0
 30
0.0
 70
   128
 71
   49
 72
   69
 73
   70
  0
VERTEX
  8
pSphere1
 62
   254
 10
0.0
 20
0.0
 30
0.0
 70
   128
 71
   71
 72
   51
 73
   50
  0
VERTEX
  8
pSphere1
 62
   254
 10
0.0
 20
0.0
 30
0.0
 70
   128
 71
   50
 72
   70
 73
   71
  0
VERTEX
  8
pSphere1
 62
   254
 10
0.0
 20
0.0
 30
0.0
 70
   128
 71
   72
 72
   52
 73
   51
  0
VERTEX
  8
pSphere1
 62
   254
 10
0.0
 20
0.0
 30
0.0
 70
   128
 71
   51
 72
   71
 73
   72
  0
VERTEX
  8
pSphere1
 62
   254
 10
0.0
 20
0.0
 30
0.0
 70
   128
 71
   73
 72
   53
 73
   52
  0
VERTEX
  8
pSphere1
 62
   254
 10
0.0
 20
0.0
 30
0.0
 70
   128
 71
   52
 72
   72
 73
   73
  0
VERTEX
  8
pSphere1
 62
   254
 10
0.0
 20
0.0
 30
0.0
 70
   128
 71
   74
 72
   54
 73
   53
  0
VERTEX
  8
pSphere1
 62
   254
 10
0.0
 20
0.0
 30
0.0
 70
   128
 71
   53
 72
   73
 73
   74
  0
VERTEX
  8
pSphere1
 62
   254
 10
0.0
 20
0.0
 30
0.0
 70
   128
 71
   75
 72
   55
 73
   54
  0
VERTEX
  8
pSphere1
 62
   254
 10
0.0
 20
0.0
 30
0.0
 70
   128
 71
   54
 72
   74
 73
   75
  0
VERTEX
  8
pSphere1
 62
   254
 10
0.0
 20
0.0
 30
0.0
 70
   128
 71
   76
 72
   56
 73
   55
  0
VERTEX
  8
pSphere1
 62
   254
 10
0.0
 20
0.0
 30
0.0
 70
   128
 71
   55
 72
   75
 73
   76
  0
VERTEX
  8
pSphere1
 62
   254
 10
0.0
 20
0.0
 30
0.0
 70
   128
 71
   77
 72
   57
 73
   56
  0
VERTEX
  8
pSphere1
 62
   254
 10
0.0
 20
0.0
 30
0.0
 70
   128
 71
   56
 72
   76
 73
   77
  0
VERTEX
  8
pSphere1
 62
   254
 10
0.0
 20
0.0
 30
0.0
 70
   128
 71
   78
 72
   58
 73
   57
  0
VERTEX
  8
pSphere1
 62
   254
 10
0.0
 20
0.0
 30
0.0
 70
   128
 71
   57
 72
   77
 73
   78
  0
VERTEX
  8
pSphere1
 62
   254
 10
0.0
 20
0.0
 30
0.0
 70
   128
 71
   79
 72
   59
 73
   58
  0
VERTEX
  8
pSphere1
 62
   254
 10
0.0
 20
0.0
 30
0.0
 70
   128
 71
   58
 72
   78
 73
   79
  0
VERTEX
  8
pSphere1
 62
   254
 10
0.0
 20
0.0
 30
0.0
 70
   128
 71
   80
 72
   60
 73
   59
  0
VERTEX
  8
pSphere1
 62
   254
 10
0.0
 20
0.0
 30
0.0
 70
   128
 71
   59
 72
   79
 73
   80
  0
VERTEX
  8
pSphere1
 62
   254
 10
0.0
 20
0.0
 30
0.0
 70
   128
 71
   61
 72
   41
 73
   60
  0
VERTEX
  8
pSphere1
 62
   254
 10
0.0
 20
0.0
 30
0.0
 70
   128
 71
   60
 72
   80
 73
   61
  0
VERTEX
  8
pSphere1
 62
   254
 10
0.0
 20
0.0
 30
0.0
 70
   128
 71
   82
 72
   62
 73
   61
  0
VERTEX
  8
pSphere1
 62
   254
 10
0.0
 20
0.0
 30
0.0
 70
   128
 71
   61
 72
   81
 73
   82
  0
VERTEX
  8
pSphere1
 62
   254
 10
0.0
 20
0.0
 30
0.0
 70
   128
 71
   83
 72
   63
 73
   62
  0
VERTEX
  8
pSphere1
 62
   254
 10
0.0
 20
0.0
 30
0.0
 70
   128
 71
   62
 72
   82
 73
   83
  0
VERTEX
  8
pSphere1
 62
   254
 10
0.0
 20
0.0
 30
0.0
 70
   128
 71
   84
 72
   64
 73
   63
  0
VERTEX
  8
pSphere1
 62
   254
 10
0.0
 20
0.0
 30
0.0
 70
   128
 71
   63
 72
   83
 73
   84
  0
VERTEX
  8
pSphere1
 62
   254
 10
0.0
 20
0.0
 30
0.0
 70
   128
 71
   85
 72
   65
 73
   64
  0
VERTEX
  8
pSphere1
 62
   254
 10
0.0
 20
0.0
 30
0.0
 70
   128
 71
   64
 72
   84
 73
   85
  0
VERTEX
  8
pSphere1
 62
   254
 10
0.0
 20
0.0
 30
0.0
 70
   128
 71
   86
 72
   66
 73
   65
  0
VERTEX
  8
pSphere1
 62
   254
 10
0.0
 20
0.0
 30
0.0
 70
   128
 71
   65
 72
   85
 73
   86
  0
VERTEX
  8
pSphere1
 62
   254
 10
0.0
 20
0.0
 30
0.0
 70
   128
 71
   87
 72
   67
 73
   66
  0
VERTEX
  8
pSphere1
 62
   254
 10
0.0
 20
0.0
 30
0.0
 70
   128
 71
   66
 72
   86
 73
   87
  0
VERTEX
  8
pSphere1
 62
   254
 10
0.0
 20
0.0
 30
0.0
 70
   128
 71
   88
 72
   68
 73
   67
  0
VERTEX
  8
pSphere1
 62
   254
 10
0.0
 20
0.0
 30
0.0
 70
   128
 71
   67
 72
   87
 73
   88
  0
VERTEX
  8
pSphere1
 62
   254
 10
0.0
 20
0.0
 30
0.0
 70
   128
 71
   89
 72
   69
 73
   68
  0
VERTEX
  8
pSphere1
 62
   254
 10
0.0
 20
0.0
 30
0.0
 70
   128
 71
   68
 72
   88
 73
   89
  0
VERTEX
  8
pSphere1
 62
   254
 10
0.0
 20
0.0
 30
0.0
 70
   128
 71
   90
 72
   70
 73
   69
  0
VERTEX
  8
pSphere1
 62
   254
 10
0.0
 20
0.0
 30
0.0
 70
   128
 71
   69
 72
   89
 73
   90
  0
VERTEX
  8
pSphere1
 62
   254
 10
0.0
 20
0.0
 30
0.0
 70
   128
 71
   91
 72
   71
 73
   70
  0
VERTEX
  8
pSphere1
 62
   254
 10
0.0
 20
0.0
 30
0.0
 70
   128
 71
   70
 72
   90
 73
   91
  0
VERTEX
  8
pSphere1
 62
   254
 10
0.0
 20
0.0
 30
0.0
 70
   128
 71
   92
 72
   72
 73
   71
  0
VERTEX
  8
pSphere1
 62
   254
 10
0.0
 20
0.0
 30
0.0
 70
   128
 71
   71
 72
   91
 73
   92
  0
VERTEX
  8
pSphere1
 62
   254
 10
0.0
 20
0.0
 30
0.0
 70
   128
 71
   93
 72
   73
 73
   72
  0
VERTEX
  8
pSphere1
 62
   254
 10
0.0
 20
0.0
 30
0.0
 70
   128
 71
   72
 72
   92
 73
   93
  0
VERTEX
  8
pSphere1
 62
   254
 10
0.0
 20
0.0
 30
0.0
 70
   128
 71
   94
 72
   74
 73
   73
  0
VERTEX
  8
pSphere1
 62
   254
 10
0.0
 20
0.0
 30
0.0
 70
   128
 71
   73
 72
   93
 73
   94
  0
VERTEX
  8
pSphere1
 62
   254
 10
0.0
 20
0.0
 30
0.0
 70
   128
 71
   95
 72
   75
 73
   74
  0
VERTEX
  8
pSphere1
 62
   254
 10
0.0
 20
0.0
 30
0.0
 70
   128
 71
   74
 72
   94
 73
   95
  0
VERTEX
  8
pSphere1
 62
   254
 10
0.0
 20
0.0
 30
0.0
 70
   128
 71
   96
 72
   76
 73
   75
  0
VERTEX
  8
pSphere1
 62
   254
 10
0.0
 20
0.0
 30
0.0
 70
   128
 71
   75
 72
   95
 73
   96
  0
VERTEX
  8
pSphere1
 62
   254
 10
0.0
 20
0.0
 30
0.0
 70
   128
 71
   97
 72
   77
 73
   76
  0
VERTEX
  8
pSphere1
 62
   254
 10
0.0
 20
0.0
 30
0.0
 70
   128
 71
   76
 72
   96
 73
   97
  0
VERTEX
  8
pSphere1
 62
   254
 10
0.0
 20
0.0
 30
0.0
 70
   128
 71
   98
 72
   78
 73
   77
  0
VERTEX
  8
pSphere1
 62
   254
 10
0.0
 20
0.0
 30
0.0
 70
   128
 71
   77
 72
   97
 73
   98
  0
VERTEX
  8
pSphere1
 62
   254
 10
0.0
 20
0.0
 30
0.0
 70
   128
 71
   99
 72
   79
 73
   78
  0
VERTEX
  8
pSphere1
 62
   254
 10
0.0
 20
0.0
 30
0.0
 70
   128
 71
   78
 72
   98
 73
   99
  0
VERTEX
  8
pSphere1
 62
   254
 10
0.0
 20
0.0
 30
0.0
 70
   128
 71
   100
 72
   80
 73
   79
  0
VERTEX
  8
pSphere1
 62
   254
 10
0.0
 20
0.0
 30
0.0
 70
   128
 71
   79
 72
   99
 73
   100
  0
VERTEX
  8
pSphere1
 62
   254
 10
0.0
 20
0.0
 30
0.0
 70
   128
 71
   81
 72
   61
 73
   80
  0
VERTEX
  8
pSphere1
 62
   254
 10
0.0
 20
0.0
 30
0.0
 70
   128
 71
   80
 72
   100
 73
   81
  0
VERTEX
  8
pSphere1
 62
   254
 10
0.0
 20
0.0
 30
0.0
 70
   128
 71
   102
 72
   82
 73
   81
  0
VERTEX
  8
pSphere1
 62
   254
 10
0.0
 20
0.0
 30
0.0
 70
   128
 71
   81
 72
   101
 73
   102
  0
VERTEX
  8
pSphere1
 62
   254
 10
0.0
 20
0.0
 30
0.0
 70
   128
 71
   103
 72
   83
 73
   82
  0
VERTEX
  8
pSphere1
 62
   254
 10
0.0
 20
0.0
 30
0.0
 70
   128
 71
   82
 72
   102
 73
   103
  0
VERTEX
  8
pSphere1
 62
   254
 10
0.0
 20
0.0
 30
0.0
 70
   128
 71
   104
 72
   84
 73
   83
  0
VERTEX
  8
pSphere1
 62
   254
 10
0.0
 20
0.0
 30
0.0
 70
   128
 71
   83
 72
   103
 73
   104
  0
VERTEX
  8
pSphere1
 62
   254
 10
0.0
 20
0.0
 30
0.0
 70
   128
 71
   105
 72
   85
 73
   84
  0
VERTEX
  8
pSphere1
 62
   254
 10
0.0
 20
0.0
 30
0.0
 70
   128
 71
   84
 72
   104
 73
   105
  0
VERTEX
  8
pSphere1
 62
   254
 10
0.0
 20
0.0
 30
0.0
 70
   128
 71
   106
 72
   86
 73
   85
  0
VERTEX
  8
pSphere1
 62
   254
 10
0.0
 20
0.0
 30
0.0
 70
   128
 71
   85
 72
   105
 73
   106
  0
VERTEX
  8
pSphere1
 62
   254
 10
0.0
 20
0.0
 30
0.0
 70
   128
 71
   107
 72
   87
 73
   86
  0
VERTEX
  8
pSphere1
 62
   254
 10
0.0
 20
0.0
 30
0.0
 70
   128
 71
   86
 72
   106
 73
   107
  0
VERTEX
  8
pSphere1
 62
   254
 10
0.0
 20
0.0
 30
0.0
 70
   128
 71
   108
 72
   88
 73
   87
  0
VERTEX
  8
pSphere1
 62
   254
 10
0.0
 20
0.0
 30
0.0
 70
   128
 71
   87
 72
   107
 73
   108
  0
VERTEX
  8
pSphere1
 62
   254
 10
0.0
 20
0.0
 30
0.0
 70
   128
 71
   109
 72
   89
 73
   88
  0
VERTEX
  8
pSphere1
 62
   254
 10
0.0
 20
0.0
 30
0.0
 70
   128
 71
   88
 72
   108
 73
   109
  0
VERTEX
  8
pSphere1
 62
   254
 10
0.0
 20
0.0
 30
0.0
 70
   128
 71
   110
 72
   90
 73
   89
  0
VERTEX
  8
pSphere1
 62
   254
 10
0.0
 20
0.0
 30
0.0
 70
   128
 71
   89
 72
   109
 73
   110
  0
VERTEX
  8
pSphere1
 62
   254
 10
0.0
 20
0.0
 30
0.0
 70
   128
 71
   111
 72
   91
 73
   90
  0
VERTEX
  8
pSphere1
 62
   254
 10
0.0
 20
0.0
 30
0.0
 70
   128
 71
   90
 72
   110
 73
   111
  0
VERTEX
  8
pSphere1
 62
   254
 10
0.0
 20
0.0
 30
0.0
 70
   128
 71
   112
 72
   92
 73
   91
  0
VERTEX
  8
pSphere1
 62
   254
 10
0.0
 20
0.0
 30
0.0
 70
   128
 71
   91
 72
   111
 73
   112
  0
VERTEX
  8
pSphere1
 62
   254
 10
0.0
 20
0.0
 30
0.0
 70
   128
 71
   113
 72
   93
 73
   92
  0
VERTEX
  8
pSphere1
 62
   254
 10
0.0
 20
0.0
 30
0.0
 70
   128
 71
   92
 72
   112
 73
   113
  0
VERTEX
  8
pSphere1
 62
   254
 10
0.0
 20
0.0
 30
0.0
 70
   128
 71
   114
 72
   94
 73
   93
  0
VERTEX
  8
pSphere1
 62
   254
 10
0.0
 20
0.0
 30
0.0
 70
   128
 71
   93
 72
   113
 73
   114
  0
VERTEX
  8
pSphere1
 62
   254
 10
0.0
 20
0.0
 30
0.0
 70
   128
 71
   115
 72
   95
 73
   94
  0
VERTEX
  8
pSphere1
 62
   254
 10
0.0
 20
0.0
 30
0.0
 70
   128
 71
   94
 72
   114
 73
   115
  0
VERTEX
  8
pSphere1
 62
   254
 10
0.0
 20
0.0
 30
0.0
 70
   128
 71
   116
 72
   96
 73
   95
  0
VERTEX
  8
pSphere1
 62
   254
 10
0.0
 20
0.0
 30
0.0
 70
   128
 71
   95
 72
   115
 73
   116
  0
VERTEX
  8
pSphere1
 62
   254
 10
0.0
 20
0.0
 30
0.0
 70
   128
 71
   117
 72
   97
 73
   96
  0
VERTEX
  8
pSphere1
 62
   254
 10
0.0
 20
0.0
 30
0.0
 70
   128
 71
   96
 72
   116
 73
   117
  0
VERTEX
  8
pSphere1
 62
   254
 10
0.0
 20
0.0
 30
0.0
 70
   128
 71
   118
 72
   98
 73
   97
  0
VERTEX
  8
pSphere1
 62
   254
 10
0.0
 20
0.0
 30
0.0
 70
   128
 71
   97
 72
   117
 73
   118
  0
VERTEX
  8
pSphere1
 62
   254
 10
0.0
 20
0.0
 30
0.0
 70
   128
 71
   119
 72
   99
 73
   98
  0
VERTEX
  8
pSphere1
 62
   254
 10
0.0
 20
0.0
 30
0.0
 70
   128
 71
   98
 72
   118
 73
   119
  0
VERTEX
  8
pSphere1
 62
   254
 10
0.0
 20
0.0
 30
0.0
 70
   128
 71
   120
 72
   100
 73
   99
  0
VERTEX
  8
pSphere1
 62
   254
 10
0.0
 20
0.0
 30
0.0
 70
   128
 71
   99
 72
   119
 73
   120
  0
VERTEX
  8
pSphere1
 62
   254
 10
0.0
 20
0.0
 30
0.0
 70
   128
 71
   101
 72
   81
 73
   100
  0
VERTEX
  8
pSphere1
 62
   254
 10
0.0
 20
0.0
 30
0.0
 70
   128
 71
   100
 72
   120
 73
   101
  0
VERTEX
  8
pSphere1
 62
   254
 10
0.0
 20
0.0
 30
0.0
 70
   128
 71
   122
 72
   102
 73
   101
  0
VERTEX
  8
pSphere1
 62
   254
 10
0.0
 20
0.0
 30
0.0
 70
   128
 71
   101
 72
   121
 73
   122
  0
VERTEX
  8
pSphere1
 62
   254
 10
0.0
 20
0.0
 30
0.0
 70
   128
 71
   123
 72
   103
 73
   102
  0
VERTEX
  8
pSphere1
 62
   254
 10
0.0
 20
0.0
 30
0.0
 70
   128
 71
   102
 72
   122
 73
   123
  0
VERTEX
  8
pSphere1
 62
   254
 10
0.0
 20
0.0
 30
0.0
 70
   128
 71
   124
 72
   104
 73
   103
  0
VERTEX
  8
pSphere1
 62
   254
 10
0.0
 20
0.0
 30
0.0
 70
   128
 71
   103
 72
   123
 73
   124
  0
VERTEX
  8
pSphere1
 62
   254
 10
0.0
 20
0.0
 30
0.0
 70
   128
 71
   125
 72
   105
 73
   104
  0
VERTEX
  8
pSphere1
 62
   254
 10
0.0
 20
0.0
 30
0.0
 70
   128
 71
   104
 72
   124
 73
   125
  0
VERTEX
  8
pSphere1
 62
   254
 10
0.0
 20
0.0
 30
0.0
 70
   128
 71
   126
 72
   106
 73
   105
  0
VERTEX
  8
pSphere1
 62
   254
 10
0.0
 20
0.0
 30
0.0
 70
   128
 71
   105
 72
   125
 73
   126
  0
VERTEX
  8
pSphere1
 62
   254
 10
0.0
 20
0.0
 30
0.0
 70
   128
 71
   127
 72
   107
 73
   106
  0
VERTEX
  8
pSphere1
 62
   254
 10
0.0
 20
0.0
 30
0.0
 70
   128
 71
   106
 72
   126
 73
   127
  0
VERTEX
  8
pSphere1
 62
   254
 10
0.0
 20
0.0
 30
0.0
 70
   128
 71
   128
 72
   108
 73
   107
  0
VERTEX
  8
pSphere1
 62
   254
 10
0.0
 20
0.0
 30
0.0
 70
   128
 71
   107
 72
   127
 73
   128
  0
VERTEX
  8
pSphere1
 62
   254
 10
0.0
 20
0.0
 30
0.0
 70
   128
 71
   129
 72
   109
 73
   108
  0
VERTEX
  8
pSphere1
 62
   254
 10
0.0
 20
0.0
 30
0.0
 70
   128
 71
   108
 72
   128
 73
   129
  0
VERTEX
  8
pSphere1
 62
   254
 10
0.0
 20
0.0
 30
0.0
 70
   128
 71
   130
 72
   110
 73
   109
  0
VERTEX
  8
pSphere1
 62
   254
 10
0.0
 20
0.0
 30
0.0
 70
   128
 71
   109
 72
   129
 73
   130
  0
VERTEX
  8
pSphere1
 62
   254
 10
0.0
 20
0.0
 30
0.0
 70
   128
 71
   131
 72
   111
 73
   110
  0
VERTEX
  8
pSphere1
 62
   254
 10
0.0
 20
0.0
 30
0.0
 70
   128
 71
   110
 72
   130
 73
   131
  0
VERTEX
  8
pSphere1
 62
   254
 10
0.0
 20
0.0
 30
0.0
 70
   128
 71
   132
 72
   112
 73
   111
  0
VERTEX
  8
pSphere1
 62
   254
 10
0.0
 20
0.0
 30
0.0
 70
   128
 71
   111
 72
   131
 73
   132
  0
VERTEX
  8
pSphere1
 62
   254
 10
0.0
 20
0.0
 30
0.0
 70
   128
 71
   133
 72
   113
 73
   112
  0
VERTEX
  8
pSphere1
 62
   254
 10
0.0
 20
0.0
 30
0.0
 70
   128
 71
   112
 72
   132
 73
   133
  0
VERTEX
  8
pSphere1
 62
   254
 10
0.0
 20
0.0
 30
0.0
 70
   128
 71
   134
 72
   114
 73
   113
  0
VERTEX
  8
pSphere1
 62
   254
 10
0.0
 20
0.0
 30
0.0
 70
   128
 71
   113
 72
   133
 73
   134
  0
VERTEX
  8
pSphere1
 62
   254
 10
0.0
 20
0.0
 30
0.0
 70
   128
 71
   135
 72
   115
 73
   114
  0
VERTEX
  8
pSphere1
 62
   254
 10
0.0
 20
0.0
 30
0.0
 70
   128
 71
   114
 72
   134
 73
   135
  0
VERTEX
  8
pSphere1
 62
   254
 10
0.0
 20
0.0
 30
0.0
 70
   128
 71
   136
 72
   116
 73
   115
  0
VERTEX
  8
pSphere1
 62
   254
 10
0.0
 20
0.0
 30
0.0
 70
   128
 71
   115
 72
   135
 73
   136
  0
VERTEX
  8
pSphere1
 62
   254
 10
0.0
 20
0.0
 30
0.0
 70
   128
 71
   137
 72
   117
 73
   116
  0
VERTEX
  8
pSphere1
 62
   254
 10
0.0
 20
0.0
 30
0.0
 70
   128
 71
   116
 72
   136
 73
   137
  0
VERTEX
  8
pSphere1
 62
   254
 10
0.0
 20
0.0
 30
0.0
 70
   128
 71
   138
 72
   118
 73
   117
  0
VERTEX
  8
pSphere1
 62
   254
 10
0.0
 20
0.0
 30
0.0
 70
   128
 71
   117
 72
   137
 73
   138
  0
VERTEX
  8
pSphere1
 62
   254
 10
0.0
 20
0.0
 30
0.0
 70
   128
 71
   139
 72
   119
 73
   118
  0
VERTEX
  8
pSphere1
 62
   254
 10
0.0
 20
0.0
 30
0.0
 70
   128
 71
   118
 72
   138
 73
   139
  0
VERTEX
  8
pSphere1
 62
   254
 10
0.0
 20
0.0
 30
0.0
 70
   128
 71
   140
 72
   120
 73
   119
  0
VERTEX
  8
pSphere1
 62
   254
 10
0.0
 20
0.0
 30
0.0
 70
   128
 71
   119
 72
   139
 73
   140
  0
VERTEX
  8
pSphere1
 62
   254
 10
0.0
 20
0.0
 30
0.0
 70
   128
 71
   121
 72
   101
 73
   120
  0
VERTEX
  8
pSphere1
 62
   254
 10
0.0
 20
0.0
 30
0.0
 70
   128
 71
   120
 72
   140
 73
   121
  0
VERTEX
  8
pSphere1
 62
   254
 10
0.0
 20
0.0
 30
0.0
 70
   128
 71
   142
 72
   122
 73
   121
  0
VERTEX
  8
pSphere1
 62
   254
 10
0.0
 20
0.0
 30
0.0
 70
   128
 71
   121
 72
   141
 73
   142
  0
VERTEX
  8
pSphere1
 62
   254
 10
0.0
 20
0.0
 30
0.0
 70
   128
 71
   143
 72
   123
 73
   122
  0
VERTEX
  8
pSphere1
 62
   254
 10
0.0
 20
0.0
 30
0.0
 70
   128
 71
   122
 72
   142
 73
   143
  0
VERTEX
  8
pSphere1
 62
   254
 10
0.0
 20
0.0
 30
0.0
 70
   128
 71
   144
 72
   124
 73
   123
  0
VERTEX
  8
pSphere1
 62
   254
 10
0.0
 20
0.0
 30
0.0
 70
   128
 71
   123
 72
   143
 73
   144
  0
VERTEX
  8
pSphere1
 62
   254
 10
0.0
 20
0.0
 30
0.0
 70
   128
 71
   145
 72
   125
 73
   124
  0
VERTEX
  8
pSphere1
 62
   254
 10
0.0
 20
0.0
 30
0.0
 70
   128
 71
   124
 72
   144
 73
   145
  0
VERTEX
  8
pSphere1
 62
   254
 10
0.0
 20
0.0
 30
0.0
 70
   128
 71
   146
 72
   126
 73
   125
  0
VERTEX
  8
pSphere1
 62
   254
 10
0.0
 20
0.0
 30
0.0
 70
   128
 71
   125
 72
   145
 73
   146
  0
VERTEX
  8
pSphere1
 62
   254
 10
0.0
 20
0.0
 30
0.0
 70
   128
 71
   147
 72
   127
 73
   126
  0
VERTEX
  8
pSphere1
 62
   254
 10
0.0
 20
0.0
 30
0.0
 70
   128
 71
   126
 72
   146
 73
   147
  0
VERTEX
  8
pSphere1
 62
   254
 10
0.0
 20
0.0
 30
0.0
 70
   128
 71
   148
 72
   128
 73
   127
  0
VERTEX
  8
pSphere1
 62
   254
 10
0.0
 20
0.0
 30
0.0
 70
   128
 71
   127
 72
   147
 73
   148
  0
VERTEX
  8
pSphere1
 62
   254
 10
0.0
 20
0.0
 30
0.0
 70
   128
 71
   149
 72
   129
 73
   128
  0
VERTEX
  8
pSphere1
 62
   254
 10
0.0
 20
0.0
 30
0.0
 70
   128
 71
   128
 72
   148
 73
   149
  0
VERTEX
  8
pSphere1
 62
   254
 10
0.0
 20
0.0
 30
0.0
 70
   128
 71
   150
 72
   130
 73
   129
  0
VERTEX
  8
pSphere1
 62
   254
 10
0.0
 20
0.0
 30
0.0
 70
   128
 71
   129
 72
   149
 73
   150
  0
VERTEX
  8
pSphere1
 62
   254
 10
0.0
 20
0.0
 30
0.0
 70
   128
 71
   151
 72
   131
 73
   130
  0
VERTEX
  8
pSphere1
 62
   254
 10
0.0
 20
0.0
 30
0.0
 70
   128
 71
   130
 72
   150
 73
   151
  0
VERTEX
  8
pSphere1
 62
   254
 10
0.0
 20
0.0
 30
0.0
 70
   128
 71
   152
 72
   132
 73
   131
  0
VERTEX
  8
pSphere1
 62
   254
 10
0.0
 20
0.0
 30
0.0
 70
   128
 71
   131
 72
   151
 73
   152
  0
VERTEX
  8
pSphere1
 62
   254
 10
0.0
 20
0.0
 30
0.0
 70
   128
 71
   153
 72
   133
 73
   132
  0
VERTEX
  8
pSphere1
 62
   254
 10
0.0
 20
0.0
 30
0.0
 70
   128
 71
   132
 72
   152
 73
   153
  0
VERTEX
  8
pSphere1
 62
   254
 10
0.0
 20
0.0
 30
0.0
 70
   128
 71
   154
 72
   134
 73
   133
  0
VERTEX
  8
pSphere1
 62
   254
 10
0.0
 20
0.0
 30
0.0
 70
   128
 71
   133
 72
   153
 73
   154
  0
VERTEX
  8
pSphere1
 62
   254
 10
0.0
 20
0.0
 30
0.0
 70
   128
 71
   155
 72
   135
 73
   134
  0
VERTEX
  8
pSphere1
 62
   254
 10
0.0
 20
0.0
 30
0.0
 70
   128
 71
   134
 72
   154
 73
   155
  0
VERTEX
  8
pSphere1
 62
   254
 10
0.0
 20
0.0
 30
0.0
 70
   128
 71
   156
 72
   136
 73
   135
  0
VERTEX
  8
pSphere1
 62
   254
 10
0.0
 20
0.0
 30
0.0
 70
   128
 71
   135
 72
   155
 73
   156
  0
VERTEX
  8
pSphere1
 62
   254
 10
0.0
 20
0.0
 30
0.0
 70
   128
 71
   157
 72
   137
 73
   136
  0
VERTEX
  8
pSphere1
 62
   254
 10
0.0
 20
0.0
 30
0.0
 70
   128
 71
   136
 72
   156
 73
   157
  0
VERTEX
  8
pSphere1
 62
   254
 10
0.0
 20
0.0
 30
0.0
 70
   128
 71
   158
 72
   138
 73
   137
  0
VERTEX
  8
pSphere1
 62
   254
 10
0.0
 20
0.0
 30
0.0
 70
   128
 71
   137
 72
   157
 73
   158
  0
VERTEX
  8
pSphere1
 62
   254
 10
0.0
 20
0.0
 30
0.0
 70
   128
 71
   159
 72
   139
 73
   138
  0
VERTEX
  8
pSphere1
 62
   254
 10
0.0
 20
0.0
 30
0.0
 70
   128
 71
   138
 72
   158
 73
   159
  0
VERTEX
  8
pSphere1
 62
   254
 10
0.0
 20
0.0
 30
0.0
 70
   128
 71
   160
 72
   140
 73
   139
  0
VERTEX
  8
pSphere1
 62
   254
 10
0.0
 20
0.0
 30
0.0
 70
   128
 71
   139
 72
   159
 73
   160
  0
VERTEX
  8
pSphere1
 62
   254
 10
0.0
 20
0.0
 30
0.0
 70
   128
 71
   141
 72
   121
 73
   140
  0
VERTEX
  8
pSphere1
 62
   254
 10
0.0
 20
0.0
 30
0.0
 70
   128
 71
   140
 72
   160
 73
   141
  0
VERTEX
  8
pSphere1
 62
   254
 10
0.0
 20
0.0
 30
0.0
 70
   128
 71
   162
 72
   142
 73
   141
  0
VERTEX
  8
pSphere1
 62
   254
 10
0.0
 20
0.0
 30
0.0
 70
   128
 71
   141
 72
   161
 73
   162
  0
VERTEX
  8
pSphere1
 62
   254
 10
0.0
 20
0.0
 30
0.0
 70
   128
 71
   163
 72
   143
 73
   142
  0
VERTEX
  8
pSphere1
 62
   254
 10
0.0
 20
0.0
 30
0.0
 70
   128
 71
   142
 72
   162
 73
   163
  0
VERTEX
  8
pSphere1
 62
   254
 10
0.0
 20
0.0
 30
0.0
 70
   128
 71
   164
 72
   144
 73
   143
  0
VERTEX
  8
pSphere1
 62
   254
 10
0.0
 20
0.0
 30
0.0
 70
   128
 71
   143
 72
   163
 73
   164
  0
VERTEX
  8
pSphere1
 62
   254
 10
0.0
 20
0.0
 30
0.0
 70
   128
 71
   165
 72
   145
 73
   144
  0
VERTEX
  8
pSphere1
 62
   254
 10
0.0
 20
0.0
 30
0.0
 70
   128
 71
   144
 72
   164
 73
   165
  0
VERTEX
  8
pSphere1
 62
   254
 10
0.0
 20
0.0
 30
0.0
 70
   128
 71
   166
 72
   146
 73
   145
  0
VERTEX
  8
pSphere1
 62
   254
 10
0.0
 20
0.0
 30
0.0
 70
   128
 71
   145
 72
   165
 73
   166
  0
VERTEX
  8
pSphere1
 62
   254
 10
0.0
 20
0.0
 30
0.0
 70
   128
 71
   167
 72
   147
 73
   146
  0
VERTEX
  8
pSphere1
 62
   254
 10
0.0
 20
0.0
 30
0.0
 70
   128
 71
   146
 72
   166
 73
   167
  0
VERTEX
  8
pSphere1
 62
   254
 10
0.0
 20
0.0
 30
0.0
 70
   128
 71
   168
 72
   148
 73
   147
  0
VERTEX
  8
pSphere1
 62
   254
 10
0.0
 20
0.0
 30
0.0
 70
   128
 71
   147
 72
   167
 73
   168
  0
VERTEX
  8
pSphere1
 62
   254
 10
0.0
 20
0.0
 30
0.0
 70
   128
 71
   169
 72
   149
 73
   148
  0
VERTEX
  8
pSphere1
 62
   254
 10
0.0
 20
0.0
 30
0.0
 70
   128
 71
   148
 72
   168
 73
   169
  0
VERTEX
  8
pSphere1
 62
   254
 10
0.0
 20
0.0
 30
0.0
 70
   128
 71
   170
 72
   150
 73
   149
  0
VERTEX
  8
pSphere1
 62
   254
 10
0.0
 20
0.0
 30
0.0
 70
   128
 71
   149
 72
   169
 73
   170
  0
VERTEX
  8
pSphere1
 62
   254
 10
0.0
 20
0.0
 30
0.0
 70
   128
 71
   171
 72
   151
 73
   150
  0
VERTEX
  8
pSphere1
 62
   254
 10
0.0
 20
0.0
 30
0.0
 70
   128
 71
   150
 72
   170
 73
   171
  0
VERTEX
  8
pSphere1
 62
   254
 10
0.0
 20
0.0
 30
0.0
 70
   128
 71
   172
 72
   152
 73
   151
  0
VERTEX
  8
pSphere1
 62
   254
 10
0.0
 20
0.0
 30
0.0
 70
   128
 71
   151
 72
   171
 73
   172
  0
VERTEX
  8
pSphere1
 62
   254
 10
0.0
 20
0.0
 30
0.0
 70
   128
 71
   173
 72
   153
 73
   152
  0
VERTEX
  8
pSphere1
 62
   254
 10
0.0
 20
0.0
 30
0.0
 70
   128
 71
   152
 72
   172
 73
   173
  0
VERTEX
  8
pSphere1
 62
   254
 10
0.0
 20
0.0
 30
0.0
 70
   128
 71
   174
 72
   154
 73
   153
  0
VERTEX
  8
pSphere1
 62
   254
 10
0.0
 20
0.0
 30
0.0
 70
   128
 71
   153
 72
   173
 73
   174
  0
VERTEX
  8
pSphere1
 62
   254
 10
0.0
 20
0.0
 30
0.0
 70
   128
 71
   175
 72
   155
 73
   154
  0
VERTEX
  8
pSphere1
 62
   254
 10
0.0
 20
0.0
 30
0.0
 70
   128
 71
   154
 72
   174
 73
   175
  0
VERTEX
  8
pSphere1
 62
   254
 10
0.0
 20
0.0
 30
0.0
 70
   128
 71
   176
 72
   156
 73
   155
  0
VERTEX
  8
pSphere1
 62
   254
 10
0.0
 20
0.0
 30
0.0
 70
   128
 71
   155
 72
   175
 73
   176
  0
VERTEX
  8
pSphere1
 62
   254
 10
0.0
 20
0.0
 30
0.0
 70
   128
 71
   177
 72
   157
 73
   156
  0
VERTEX
  8
pSphere1
 62
   254
 10
0.0
 20
0.0
 30
0.0
 70
   128
 71
   156
 72
   176
 73
   177
  0
VERTEX
  8
pSphere1
 62
   254
 10
0.0
 20
0.0
 30
0.0
 70
   128
 71
   178
 72
   158
 73
   157
  0
VERTEX
  8
pSphere1
 62
   254
 10
0.0
 20
0.0
 30
0.0
 70
   128
 71
   157
 72
   177
 73
   178
  0
VERTEX
  8
pSphere1
 62
   254
 10
0.0
 20
0.0
 30
0.0
 70
   128
 71
   179
 72
   159
 73
   158
  0
VERTEX
  8
pSphere1
 62
   254
 10
0.0
 20
0.0
 30
0.0
 70
   128
 71
   158
 72
   178
 73
   179
  0
VERTEX
  8
pSphere1
 62
   254
 10
0.0
 20
0.0
 30
0.0
 70
   128
 71
   180
 72
   160
 73
   159
  0
VERTEX
  8
pSphere1
 62
   254
 10
0.0
 20
0.0
 30
0.0
 70
   128
 71
   159
 72
   179
 73
   180
  0
VERTEX
  8
pSphere1
 62
   254
 10
0.0
 20
0.0
 30
0.0
 70
   128
 71
   161
 72
   141
 73
   160
  0
VERTEX
  8
pSphere1
 62
   254
 10
0.0
 20
0.0
 30
0.0
 70
   128
 71
   160
 72
   180
 73
   161
  0
VERTEX
  8
pSphere1
 62
   254
 10
0.0
 20
0.0
 30
0.0
 70
   128
 71
   182
 72
   162
 73
   161
  0
VERTEX
  8
pSphere1
 62
   254
 10
0.0
 20
0.0
 30
0.0
 70
   128
 71
   161
 72
   181
 73
   182
  0
VERTEX
  8
pSphere1
 62
   254
 10
0.0
 20
0.0
 30
0.0
 70
   128
 71
   183
 72
   163
 73
   162
  0
VERTEX
  8
pSphere1
 62
   254
 10
0.0
 20
0.0
 30
0.0
 70
   128
 71
   162
 72
   182
 73
   183
  0
VERTEX
  8
pSphere1
 62
   254
 10
0.0
 20
0.0
 30
0.0
 70
   128
 71
   184
 72
   164
 73
   163
  0
VERTEX
  8
pSphere1
 62
   254
 10
0.0
 20
0.0
 30
0.0
 70
   128
 71
   163
 72
   183
 73
   184
  0
VERTEX
  8
pSphere1
 62
   254
 10
0.0
 20
0.0
 30
0.0
 70
   128
 71
   185
 72
   165
 73
   164
  0
VERTEX
  8
pSphere1
 62
   254
 10
0.0
 20
0.0
 30
0.0
 70
   128
 71
   164
 72
   184
 73
   185
  0
VERTEX
  8
pSphere1
 62
   254
 10
0.0
 20
0.0
 30
0.0
 70
   128
 71
   186
 72
   166
 73
   165
  0
VERTEX
  8
pSphere1
 62
   254
 10
0.0
 20
0.0
 30
0.0
 70
   128
 71
   165
 72
   185
 73
   186
  0
VERTEX
  8
pSphere1
 62
   254
 10
0.0
 20
0.0
 30
0.0
 70
   128
 71
   187
 72
   167
 73
   166
  0
VERTEX
  8
pSphere1
 62
   254
 10
0.0
 20
0.0
 30
0.0
 70
   128
 71
   166
 72
   186
 73
   187
  0
VERTEX
  8
pSphere1
 62
   254
 10
0.0
 20
0.0
 30
0.0
 70
   128
 71
   188
 72
   168
 73
   167
  0
VERTEX
  8
pSphere1
 62
   254
 10
0.0
 20
0.0
 30
0.0
 70
   128
 71
   167
 72
   187
 73
   188
  0
VERTEX
  8
pSphere1
 62
   254
 10
0.0
 20
0.0
 30
0.0
 70
   128
 71
   189
 72
   169
 73
   168
  0
VERTEX
  8
pSphere1
 62
   254
 10
0.0
 20
0.0
 30
0.0
 70
   128
 71
   168
 72
   188
 73
   189
  0
VERTEX
  8
pSphere1
 62
   254
 10
0.0
 20
0.0
 30
0.0
 70
   128
 71
   190
 72
   170
 73
   169
  0
VERTEX
  8
pSphere1
 62
   254
 10
0.0
 20
0.0
 30
0.0
 70
   128
 71
   169
 72
   189
 73
   190
  0
VERTEX
  8
pSphere1
 62
   254
 10
0.0
 20
0.0
 30
0.0
 70
   128
 71
   191
 72
   171
 73
   170
  0
VERTEX
  8
pSphere1
 62
   254
 10
0.0
 20
0.0
 30
0.0
 70
   128
 71
   170
 72
   190
 73
   191
  0
VERTEX
  8
pSphere1
 62
   254
 10
0.0
 20
0.0
 30
0.0
 70
   128
 71
   192
 72
   172
 73
   171
  0
VERTEX
  8
pSphere1
 62
   254
 10
0.0
 20
0.0
 30
0.0
 70
   128
 71
   171
 72
   191
 73
   192
  0
VERTEX
  8
pSphere1
 62
   254
 10
0.0
 20
0.0
 30
0.0
 70
   128
 71
   193
 72
   173
 73
   172
  0
VERTEX
  8
pSphere1
 62
   254
 10
0.0
 20
0.0
 30
0.0
 70
   128
 71
   172
 72
   192
 73
   193
  0
VERTEX
  8
pSphere1
 62
   254
 10
0.0
 20
0.0
 30
0.0
 70
   128
 71
   194
 72
   174
 73
   173
  0
VERTEX
  8
pSphere1
 62
   254
 10
0.0
 20
0.0
 30
0.0
 70
   128
 71
   173
 72
   193
 73
   194
  0
VERTEX
  8
pSphere1
 62
   254
 10
0.0
 20
0.0
 30
0.0
 70
   128
 71
   195
 72
   175
 73
   174
  0
VERTEX
  8
pSphere1
 62
   254
 10
0.0
 20
0.0
 30
0.0
 70
   128
 71
   174
 72
   194
 73
   195
  0
VERTEX
  8
pSphere1
 62
   254
 10
0.0
 20
0.0
 30
0.0
 70
   128
 71
   196
 72
   176
 73
   175
  0
VERTEX
  8
pSphere1
 62
   254
 10
0.0
 20
0.0
 30
0.0
 70
   128
 71
   175
 72
   195
 73
   196
  0
VERTEX
  8
pSphere1
 62
   254
 10
0.0
 20
0.0
 30
0.0
 70
   128
 71
   197
 72
   177
 73
   176
  0
VERTEX
  8
pSphere1
 62
   254
 10
0.0
 20
0.0
 30
0.0
 70
   128
 71
   176
 72
   196
 73
   197
  0
VERTEX
  8
pSphere1
 62
   254
 10
0.0
 20
0.0
 30
0.0
 70
   128
 71
   198
 72
   178
 73
   177
  0
VERTEX
  8
pSphere1
 62
   254
 10
0.0
 20
0.0
 30
0.0
 70
   128
 71
   177
 72
   197
 73
   198
  0
VERTEX
  8
pSphere1
 62
   254
 10
0.0
 20
0.0
 30
0.0
 70
   128
 71
   199
 72
   179
 73
   178
  0
VERTEX
  8
pSphere1
 62
   254
 10
0.0
 20
0.0
 30
0.0
 70
   128
 71
   178
 72
   198
 73
   199
  0
VERTEX
  8
pSphere1
 62
   254
 10
0.0
 20
0.0
 30
0.0
 70
   128
 71
   200
 72
   180
 73
   179
  0
VERTEX
  8
pSphere1
 62
   254
 10
0.0
 20
0.0
 30
0.0
 70
   128
 71
   179
 72
   199
 73
   200
  0
VERTEX
  8
pSphere1
 62
   254
 10
0.0
 20
0.0
 30
0.0
 70
   128
 71
   181
 72
   161
 73
   180
  0
VERTEX
  8
pSphere1
 62
   254
 10
0.0
 20
0.0
 30
0.0
 70
   128
 71
   180
 72
   200
 73
   181
  0
VERTEX
  8
pSphere1
 62
   254
 10
0.0
 20
0.0
 30
0.0
 70
   128
 71
   202
 72
   182
 73
   181
  0
VERTEX
  8
pSphere1
 62
   254
 10
0.0
 20
0.0
 30
0.0
 70
   128
 71
   181
 72
   201
 73
   202
  0
VERTEX
  8
pSphere1
 62
   254
 10
0.0
 20
0.0
 30
0.0
 70
   128
 71
   203
 72
   183
 73
   182
  0
VERTEX
  8
pSphere1
 62
   254
 10
0.0
 20
0.0
 30
0.0
 70
   128
 71
   182
 72
   202
 73
   203
  0
VERTEX
  8
pSphere1
 62
   254
 10
0.0
 20
0.0
 30
0.0
 70
   128
 71
   204
 72
   184
 73
   183
  0
VERTEX
  8
pSphere1
 62
   254
 10
0.0
 20
0.0
 30
0.0
 70
   128
 71
   183
 72
   203
 73
   204
  0
VERTEX
  8
pSphere1
 62
   254
 10
0.0
 20
0.0
 30
0.0
 70
   128
 71
   205
 72
   185
 73
   184
  0
VERTEX
  8
pSphere1
 62
   254
 10
0.0
 20
0.0
 30
0.0
 70
   128
 71
   184
 72
   204
 73
   205
  0
VERTEX
  8
pSphere1
 62
   254
 10
0.0
 20
0.0
 30
0.0
 70
   128
 71
   206
 72
   186
 73
   185
  0
VERTEX
  8
pSphere1
 62
   254
 10
0.0
 20
0.0
 30
0.0
 70
   128
 71
   185
 72
   205
 73
   206
  0
VERTEX
  8
pSphere1
 62
   254
 10
0.0
 20
0.0
 30
0.0
 70
   128
 71
   207
 72
   187
 73
   186
  0
VERTEX
  8
pSphere1
 62
   254
 10
0.0
 20
0.0
 30
0.0
 70
   128
 71
   186
 72
   206
 73
   207
  0
VERTEX
  8
pSphere1
 62
   254
 10
0.0
 20
0.0
 30
0.0
 70
   128
 71
   208
 72
   188
 73
   187
  0
VERTEX
  8
pSphere1
 62
   254
 10
0.0
 20
0.0
 30
0.0
 70
   128
 71
   187
 72
   207
 73
   208
  0
VERTEX
  8
pSphere1
 62
   254
 10
0.0
 20
0.0
 30
0.0
 70
   128
 71
   209
 72
   189
 73
   188
  0
VERTEX
  8
pSphere1
 62
   254
 10
0.0
 20
0.0
 30
0.0
 70
   128
 71
   188
 72
   208
 73
   209
  0
VERTEX
  8
pSphere1
 62
   254
 10
0.0
 20
0.0
 30
0.0
 70
   128
 71
   210
 72
   190
 73
   189
  0
VERTEX
  8
pSphere1
 62
   254
 10
0.0
 20
0.0
 30
0.0
 70
   128
 71
   189
 72
   209
 73
   210
  0
VERTEX
  8
pSphere1
 62
   254
 10
0.0
 20
0.0
 30
0.0
 70
   128
 71
   211
 72
   191
 73
   190
  0
VERTEX
  8
pSphere1
 62
   254
 10
0.0
 20
0.0
 30
0.0
 70
   128
 71
   190
 72
   210
 73
   211
  0
VERTEX
  8
pSphere1
 62
   254
 10
0.0
 20
0.0
 30
0.0
 70
   128
 71
   212
 72
   192
 73
   191
  0
VERTEX
  8
pSphere1
 62
   254
 10
0.0
 20
0.0
 30
0.0
 70
   128
 71
   191
 72
   211
 73
   212
  0
VERTEX
  8
pSphere1
 62
   254
 10
0.0
 20
0.0
 30
0.0
 70
   128
 71
   213
 72
   193
 73
   192
  0
VERTEX
  8
pSphere1
 62
   254
 10
0.0
 20
0.0
 30
0.0
 70
   128
 71
   192
 72
   212
 73
   213
  0
VERTEX
  8
pSphere1
 62
   254
 10
0.0
 20
0.0
 30
0.0
 70
   128
 71
   214
 72
   194
 73
   193
  0
VERTEX
  8
pSphere1
 62
   254
 10
0.0
 20
0.0
 30
0.0
 70
   128
 71
   193
 72
   213
 73
   214
  0
VERTEX
  8
pSphere1
 62
   254
 10
0.0
 20
0.0
 30
0.0
 70
   128
 71
   215
 72
   195
 73
   194
  0
VERTEX
  8
pSphere1
 62
   254
 10
0.0
 20
0.0
 30
0.0
 70
   128
 71
   194
 72
   214
 73
   215
  0
VERTEX
  8
pSphere1
 62
   254
 10
0.0
 20
0.0
 30
0.0
 70
   128
 71
   216
 72
   196
 73
   195
  0
VERTEX
  8
pSphere1
 62
   254
 10
0.0
 20
0.0
 30
0.0
 70
   128
 71
   195
 72
   215
 73
   216
  0
VERTEX
  8
pSphere1
 62
   254
 10
0.0
 20
0.0
 30
0.0
 70
   128
 71
   217
 72
   197
 73
   196
  0
VERTEX
  8
pSphere1
 62
   254
 10
0.0
 20
0.0
 30
0.0
 70
   128
 71
   196
 72
   216
 73
   217
  0
VERTEX
  8
pSphere1
 62
   254
 10
0.0
 20
0.0
 30
0.0
 70
   128
 71
   218
 72
   198
 73
   197
  0
VERTEX
  8
pSphere1
 62
   254
 10
0.0
 20
0.0
 30
0.0
 70
   128
 71
   197
 72
   217
 73
   218
  0
VERTEX
  8
pSphere1
 62
   254
 10
0.0
 20
0.0
 30
0.0
 70
   128
 71
   219
 72
   199
 73
   198
  0
VERTEX
  8
pSphere1
 62
   254
 10
0.0
 20
0.0
 30
0.0
 70
   128
 71
   198
 72
   218
 73
   219
  0
VERTEX
  8
pSphere1
 62
   254
 10
0.0
 20
0.0
 30
0.0
 70
   128
 71
   220
 72
   200
 73
   199
  0
VERTEX
  8
pSphere1
 62
   254
 10
0.0
 20
0.0
 30
0.0
 70
   128
 71
   199
 72
   219
 73
   220
  0
VERTEX
  8
pSphere1
 62
   254
 10
0.0
 20
0.0
 30
0.0
 70
   128
 71
   201
 72
   181
 73
   200
  0
VERTEX
  8
pSphere1
 62
   254
 10
0.0
 20
0.0
 30
0.0
 70
   128
 71
   200
 72
   220
 73
   201
  0
VERTEX
  8
pSphere1
 62
   254
 10
0.0
 20
0.0
 30
0.0
 70
   128
 71
   222
 72
   202
 73
   201
  0
VERTEX
  8
pSphere1
 62
   254
 10
0.0
 20
0.0
 30
0.0
 70
   128
 71
   201
 72
   221
 73
   222
  0
VERTEX
  8
pSphere1
 62
   254
 10
0.0
 20
0.0
 30
0.0
 70
   128
 71
   223
 72
   203
 73
   202
  0
VERTEX
  8
pSphere1
 62
   254
 10
0.0
 20
0.0
 30
0.0
 70
   128
 71
   202
 72
   222
 73
   223
  0
VERTEX
  8
pSphere1
 62
   254
 10
0.0
 20
0.0
 30
0.0
 70
   128
 71
   224
 72
   204
 73
   203
  0
VERTEX
  8
pSphere1
 62
   254
 10
0.0
 20
0.0
 30
0.0
 70
   128
 71
   203
 72
   223
 73
   224
  0
VERTEX
  8
pSphere1
 62
   254
 10
0.0
 20
0.0
 30
0.0
 70
   128
 71
   225
 72
   205
 73
   204
  0
VERTEX
  8
pSphere1
 62
   254
 10
0.0
 20
0.0
 30
0.0
 70
   128
 71
   204
 72
   224
 73
   225
  0
VERTEX
  8
pSphere1
 62
   254
 10
0.0
 20
0.0
 30
0.0
 70
   128
 71
   226
 72
   206
 73
   205
  0
VERTEX
  8
pSphere1
 62
   254
 10
0.0
 20
0.0
 30
0.0
 70
   128
 71
   205
 72
   225
 73
   226
  0
VERTEX
  8
pSphere1
 62
   254
 10
0.0
 20
0.0
 30
0.0
 70
   128
 71
   227
 72
   207
 73
   206
  0
VERTEX
  8
pSphere1
 62
   254
 10
0.0
 20
0.0
 30
0.0
 70
   128
 71
   206
 72
   226
 73
   227
  0
VERTEX
  8
pSphere1
 62
   254
 10
0.0
 20
0.0
 30
0.0
 70
   128
 71
   228
 72
   208
 73
   207
  0
VERTEX
  8
pSphere1
 62
   254
 10
0.0
 20
0.0
 30
0.0
 70
   128
 71
   207
 72
   227
 73
   228
  0
VERTEX
  8
pSphere1
 62
   254
 10
0.0
 20
0.0
 30
0.0
 70
   128
 71
   229
 72
   209
 73
   208
  0
VERTEX
  8
pSphere1
 62
   254
 10
0.0
 20
0.0
 30
0.0
 70
   128
 71
   208
 72
   228
 73
   229
  0
VERTEX
  8
pSphere1
 62
   254
 10
0.0
 20
0.0
 30
0.0
 70
   128
 71
   230
 72
   210
 73
   209
  0
VERTEX
  8
pSphere1
 62
   254
 10
0.0
 20
0.0
 30
0.0
 70
   128
 71
   209
 72
   229
 73
   230
  0
VERTEX
  8
pSphere1
 62
   254
 10
0.0
 20
0.0
 30
0.0
 70
   128
 71
   231
 72
   211
 73
   210
  0
VERTEX
  8
pSphere1
 62
   254
 10
0.0
 20
0.0
 30
0.0
 70
   128
 71
   210
 72
   230
 73
   231
  0
VERTEX
  8
pSphere1
 62
   254
 10
0.0
 20
0.0
 30
0.0
 70
   128
 71
   232
 72
   212
 73
   211
  0
VERTEX
  8
pSphere1
 62
   254
 10
0.0
 20
0.0
 30
0.0
 70
   128
 71
   211
 72
   231
 73
   232
  0
VERTEX
  8
pSphere1
 62
   254
 10
0.0
 20
0.0
 30
0.0
 70
   128
 71
   233
 72
   213
 73
   212
  0
VERTEX
  8
pSphere1
 62
   254
 10
0.0
 20
0.0
 30
0.0
 70
   128
 71
   212
 72
   232
 73
   233
  0
VERTEX
  8
pSphere1
 62
   254
 10
0.0
 20
0.0
 30
0.0
 70
   128
 71
   234
 72
   214
 73
   213
  0
VERTEX
  8
pSphere1
 62
   254
 10
0.0
 20
0.0
 30
0.0
 70
   128
 71
   213
 72
   233
 73
   234
  0
VERTEX
  8
pSphere1
 62
   254
 10
0.0
 20
0.0
 30
0.0
 70
   128
 71
   235
 72
   215
 73
   214
  0
VERTEX
  8
pSphere1
 62
   254
 10
0.0
 20
0.0
 30
0.0
 70
   128
 71
   214
 72
   234
 73
   235
  0
VERTEX
  8
pSphere1
 62
   254
 10
0.0
 20
0.0
 30
0.0
 70
   128
 71
   236
 72
   216
 73
   215
  0
VERTEX
  8
pSphere1
 62
   254
 10
0.0
 20
0.0
 30
0.0
 70
   128
 71
   215
 72
   235
 73
   236
  0
VERTEX
  8
pSphere1
 62
   254
 10
0.0
 20
0.0
 30
0.0
 70
   128
 71
   237
 72
   217
 73
   216
  0
VERTEX
  8
pSphere1
 62
   254
 10
0.0
 20
0.0
 30
0.0
 70
   128
 71
   216
 72
   236
 73
   237
  0
VERTEX
  8
pSphere1
 62
   254
 10
0.0
 20
0.0
 30
0.0
 70
   128
 71
   238
 72
   218
 73
   217
  0
VERTEX
  8
pSphere1
 62
   254
 10
0.0
 20
0.0
 30
0.0
 70
   128
 71
   217
 72
   237
 73
   238
  0
VERTEX
  8
pSphere1
 62
   254
 10
0.0
 20
0.0
 30
0.0
 70
   128
 71
   239
 72
   219
 73
   218
  0
VERTEX
  8
pSphere1
 62
   254
 10
0.0
 20
0.0
 30
0.0
 70
   128
 71
   218
 72
   238
 73
   239
  0
VERTEX
  8
pSphere1
 62
   254
 10
0.0
 20
0.0
 30
0.0
 70
   128
 71
   240
 72
   220
 73
   219
  0
VERTEX
  8
pSphere1
 62
   254
 10
0.0
 20
0.0
 30
0.0
 70
   128
 71
   219
 72
   239
 73
   240
  0
VERTEX
  8
pSphere1
 62
   254
 10
0.0
 20
0.0
 30
0.0
 70
   128
 71
   221
 72
   201
 73
   220
  0
VERTEX
  8
pSphere1
 62
   254
 10
0.0
 20
0.0
 30
0.0
 70
   128
 71
   220
 72
   240
 73
   221
  0
VERTEX
  8
pSphere1
 62
   254
 10
0.0
 20
0.0
 30
0.0
 70
   128
 71
   242
 72
   222
 73
   221
  0
VERTEX
  8
pSphere1
 62
   254
 10
0.0
 20
0.0
 30
0.0
 70
   128
 71
   221
 72
   241
 73
   242
  0
VERTEX
  8
pSphere1
 62
   254
 10
0.0
 20
0.0
 30
0.0
 70
   128
 71
   243
 72
   223
 73
   222
  0
VERTEX
  8
pSphere1
 62
   254
 10
0.0
 20
0.0
 30
0.0
 70
   128
 71
   222
 72
   242
 73
   243
  0
VERTEX
  8
pSphere1
 62
   254
 10
0.0
 20
0.0
 30
0.0
 70
   128
 71
   244
 72
   224
 73
   223
  0
VERTEX
  8
pSphere1
 62
   254
 10
0.0
 20
0.0
 30
0.0
 70
   128
 71
   223
 72
   243
 73
   244
  0
VERTEX
  8
pSphere1
 62
   254
 10
0.0
 20
0.0
 30
0.0
 70
   128
 71
   245
 72
   225
 73
   224
  0
VERTEX
  8
pSphere1
 62
   254
 10
0.0
 20
0.0
 30
0.0
 70
   128
 71
   224
 72
   244
 73
   245
  0
VERTEX
  8
pSphere1
 62
   254
 10
0.0
 20
0.0
 30
0.0
 70
   128
 71
   246
 72
   226
 73
   225
  0
VERTEX
  8
pSphere1
 62
   254
 10
0.0
 20
0.0
 30
0.0
 70
   128
 71
   225
 72
   245
 73
   246
  0
VERTEX
  8
pSphere1
 62
   254
 10
0.0
 20
0.0
 30
0.0
 70
   128
 71
   247
 72
   227
 73
   226
  0
VERTEX
  8
pSphere1
 62
   254
 10
0.0
 20
0.0
 30
0.0
 70
   128
 71
   226
 72
   246
 73
   247
  0
VERTEX
  8
pSphere1
 62
   254
 10
0.0
 20
0.0
 30
0.0
 70
   128
 71
   248
 72
   228
 73
   227
  0
VERTEX
  8
pSphere1
 62
   254
 10
0.0
 20
0.0
 30
0.0
 70
   128
 71
   227
 72
   247
 73
   248
  0
VERTEX
  8
pSphere1
 62
   254
 10
0.0
 20
0.0
 30
0.0
 70
   128
 71
   249
 72
   229
 73
   228
  0
VERTEX
  8
pSphere1
 62
   254
 10
0.0
 20
0.0
 30
0.0
 70
   128
 71
   228
 72
   248
 73
   249
  0
VERTEX
  8
pSphere1
 62
   254
 10
0.0
 20
0.0
 30
0.0
 70
   128
 71
   250
 72
   230
 73
   229
  0
VERTEX
  8
pSphere1
 62
   254
 10
0.0
 20
0.0
 30
0.0
 70
   128
 71
   229
 72
   249
 73
   250
  0
VERTEX
  8
pSphere1
 62
   254
 10
0.0
 20
0.0
 30
0.0
 70
   128
 71
   251
 72
   231
 73
   230
  0
VERTEX
  8
pSphere1
 62
   254
 10
0.0
 20
0.0
 30
0.0
 70
   128
 71
   230
 72
   250
 73
   251
  0
VERTEX
  8
pSphere1
 62
   254
 10
0.0
 20
0.0
 30
0.0
 70
   128
 71
   252
 72
   232
 73
   231
  0
VERTEX
  8
pSphere1
 62
   254
 10
0.0
 20
0.0
 30
0.0
 70
   128
 71
   231
 72
   251
 73
   252
  0
VERTEX
  8
pSphere1
 62
   254
 10
0.0
 20
0.0
 30
0.0
 70
   128
 71
   253
 72
   233
 73
   232
  0
VERTEX
  8
pSphere1
 62
   254
 10
0.0
 20
0.0
 30
0.0
 70
   128
 71
   232
 72
   252
 73
   253
  0
VERTEX
  8
pSphere1
 62
   254
 10
0.0
 20
0.0
 30
0.0
 70
   128
 71
   254
 72
   234
 73
   233
  0
VERTEX
  8
pSphere1
 62
   254
 10
0.0
 20
0.0
 30
0.0
 70
   128
 71
   233
 72
   253
 73
   254
  0
VERTEX
  8
pSphere1
 62
   254
 10
0.0
 20
0.0
 30
0.0
 70
   128
 71
   255
 72
   235
 73
   234
  0
VERTEX
  8
pSphere1
 62
   254
 10
0.0
 20
0.0
 30
0.0
 70
   128
 71
   234
 72
   254
 73
   255
  0
VERTEX
  8
pSphere1
 62
   254
 10
0.0
 20
0.0
 30
0.0
 70
   128
 71
   256
 72
   236
 73
   235
  0
VERTEX
  8
pSphere1
 62
   254
 10
0.0
 20
0.0
 30
0.0
 70
   128
 71
   235
 72
   255
 73
   256
  0
VERTEX
  8
pSphere1
 62
   254
 10
0.0
 20
0.0
 30
0.0
 70
   128
 71
   257
 72
   237
 73
   236
  0
VERTEX
  8
pSphere1
 62
   254
 10
0.0
 20
0.0
 30
0.0
 70
   128
 71
   236
 72
   256
 73
   257
  0
VERTEX
  8
pSphere1
 62
   254
 10
0.0
 20
0.0
 30
0.0
 70
   128
 71
   258
 72
   238
 73
   237
  0
VERTEX
  8
pSphere1
 62
   254
 10
0.0
 20
0.0
 30
0.0
 70
   128
 71
   237
 72
   257
 73
   258
  0
VERTEX
  8
pSphere1
 62
   254
 10
0.0
 20
0.0
 30
0.0
 70
   128
 71
   259
 72
   239
 73
   238
  0
VERTEX
  8
pSphere1
 62
   254
 10
0.0
 20
0.0
 30
0.0
 70
   128
 71
   238
 72
   258
 73
   259
  0
VERTEX
  8
pSphere1
 62
   254
 10
0.0
 20
0.0
 30
0.0
 70
   128
 71
   260
 72
   240
 73
   239
  0
VERTEX
  8
pSphere1
 62
   254
 10
0.0
 20
0.0
 30
0.0
 70
   128
 71
   239
 72
   259
 73
   260
  0
VERTEX
  8
pSphere1
 62
   254
 10
0.0
 20
0.0
 30
0.0
 70
   128
 71
   241
 72
   221
 73
   240
  0
VERTEX
  8
pSphere1
 62
   254
 10
0.0
 20
0.0
 30
0.0
 70
   128
 71
   240
 72
   260
 73
   241
  0
VERTEX
  8
pSphere1
 62
   254
 10
0.0
 20
0.0
 30
0.0
 70
   128
 71
   262
 72
   242
 73
   241
  0
VERTEX
  8
pSphere1
 62
   254
 10
0.0
 20
0.0
 30
0.0
 70
   128
 71
   241
 72
   261
 73
   262
  0
VERTEX
  8
pSphere1
 62
   254
 10
0.0
 20
0.0
 30
0.0
 70
   128
 71
   263
 72
   243
 73
   242
  0
VERTEX
  8
pSphere1
 62
   254
 10
0.0
 20
0.0
 30
0.0
 70
   128
 71
   242
 72
   262
 73
   263
  0
VERTEX
  8
pSphere1
 62
   254
 10
0.0
 20
0.0
 30
0.0
 70
   128
 71
   264
 72
   244
 73
   243
  0
VERTEX
  8
pSphere1
 62
   254
 10
0.0
 20
0.0
 30
0.0
 70
   128
 71
   243
 72
   263
 73
   264
  0
VERTEX
  8
pSphere1
 62
   254
 10
0.0
 20
0.0
 30
0.0
 70
   128
 71
   265
 72
   245
 73
   244
  0
VERTEX
  8
pSphere1
 62
   254
 10
0.0
 20
0.0
 30
0.0
 70
   128
 71
   244
 72
   264
 73
   265
  0
VERTEX
  8
pSphere1
 62
   254
 10
0.0
 20
0.0
 30
0.0
 70
   128
 71
   266
 72
   246
 73
   245
  0
VERTEX
  8
pSphere1
 62
   254
 10
0.0
 20
0.0
 30
0.0
 70
   128
 71
   245
 72
   265
 73
   266
  0
VERTEX
  8
pSphere1
 62
   254
 10
0.0
 20
0.0
 30
0.0
 70
   128
 71
   267
 72
   247
 73
   246
  0
VERTEX
  8
pSphere1
 62
   254
 10
0.0
 20
0.0
 30
0.0
 70
   128
 71
   246
 72
   266
 73
   267
  0
VERTEX
  8
pSphere1
 62
   254
 10
0.0
 20
0.0
 30
0.0
 70
   128
 71
   268
 72
   248
 73
   247
  0
VERTEX
  8
pSphere1
 62
   254
 10
0.0
 20
0.0
 30
0.0
 70
   128
 71
   247
 72
   267
 73
   268
  0
VERTEX
  8
pSphere1
 62
   254
 10
0.0
 20
0.0
 30
0.0
 70
   128
 71
   269
 72
   249
 73
   248
  0
VERTEX
  8
pSphere1
 62
   254
 10
0.0
 20
0.0
 30
0.0
 70
   128
 71
   248
 72
   268
 73
   269
  0
VERTEX
  8
pSphere1
 62
   254
 10
0.0
 20
0.0
 30
0.0
 70
   128
 71
   270
 72
   250
 73
   249
  0
VERTEX
  8
pSphere1
 62
   254
 10
0.0
 20
0.0
 30
0.0
 70
   128
 71
   249
 72
   269
 73
   270
  0
VERTEX
  8
pSphere1
 62
   254
 10
0.0
 20
0.0
 30
0.0
 70
   128
 71
   271
 72
   251
 73
   250
  0
VERTEX
  8
pSphere1
 62
   254
 10
0.0
 20
0.0
 30
0.0
 70
   128
 71
   250
 72
   270
 73
   271
  0
VERTEX
  8
pSphere1
 62
   254
 10
0.0
 20
0.0
 30
0.0
 70
   128
 71
   272
 72
   252
 73
   251
  0
VERTEX
  8
pSphere1
 62
   254
 10
0.0
 20
0.0
 30
0.0
 70
   128
 71
   251
 72
   271
 73
   272
  0
VERTEX
  8
pSphere1
 62
   254
 10
0.0
 20
0.0
 30
0.0
 70
   128
 71
   273
 72
   253
 73
   252
  0
VERTEX
  8
pSphere1
 62
   254
 10
0.0
 20
0.0
 30
0.0
 70
   128
 71
   252
 72
   272
 73
   273
  0
VERTEX
  8
pSphere1
 62
   254
 10
0.0
 20
0.0
 30
0.0
 70
   128
 71
   274
 72
   254
 73
   253
  0
VERTEX
  8
pSphere1
 62
   254
 10
0.0
 20
0.0
 30
0.0
 70
   128
 71
   253
 72
   273
 73
   274
  0
VERTEX
  8
pSphere1
 62
   254
 10
0.0
 20
0.0
 30
0.0
 70
   128
 71
   275
 72
   255
 73
   254
  0
VERTEX
  8
pSphere1
 62
   254
 10
0.0
 20
0.0
 30
0.0
 70
   128
 71
   254
 72
   274
 73
   275
  0
VERTEX
  8
pSphere1
 62
   254
 10
0.0
 20
0.0
 30
0.0
 70
   128
 71
   276
 72
   256
 73
   255
  0
VERTEX
  8
pSphere1
 62
   254
 10
0.0
 20
0.0
 30
0.0
 70
   128
 71
   255
 72
   275
 73
   276
  0
VERTEX
  8
pSphere1
 62
   254
 10
0.0
 20
0.0
 30
0.0
 70
   128
 71
   277
 72
   257
 73
   256
  0
VERTEX
  8
pSphere1
 62
   254
 10
0.0
 20
0.0
 30
0.0
 70
   128
 71
   256
 72
   276
 73
   277
  0
VERTEX
  8
pSphere1
 62
   254
 10
0.0
 20
0.0
 30
0.0
 70
   128
 71
   278
 72
   258
 73
   257
  0
VERTEX
  8
pSphere1
 62
   254
 10
0.0
 20
0.0
 30
0.0
 70
   128
 71
   257
 72
   277
 73
   278
  0
VERTEX
  8
pSphere1
 62
   254
 10
0.0
 20
0.0
 30
0.0
 70
   128
 71
   279
 72
   259
 73
   258
  0
VERTEX
  8
pSphere1
 62
   254
 10
0.0
 20
0.0
 30
0.0
 70
   128
 71
   258
 72
   278
 73
   279
  0
VERTEX
  8
pSphere1
 62
   254
 10
0.0
 20
0.0
 30
0.0
 70
   128
 71
   280
 72
   260
 73
   259
  0
VERTEX
  8
pSphere1
 62
   254
 10
0.0
 20
0.0
 30
0.0
 70
   128
 71
   259
 72
   279
 73
   280
  0
VERTEX
  8
pSphere1
 62
   254
 10
0.0
 20
0.0
 30
0.0
 70
   128
 71
   261
 72
   241
 73
   260
  0
VERTEX
  8
pSphere1
 62
   254
 10
0.0
 20
0.0
 30
0.0
 70
   128
 71
   260
 72
   280
 73
   261
  0
VERTEX
  8
pSphere1
 62
   254
 10
0.0
 20
0.0
 30
0.0
 70
   128
 71
   282
 72
   262
 73
   261
  0
VERTEX
  8
pSphere1
 62
   254
 10
0.0
 20
0.0
 30
0.0
 70
   128
 71
   261
 72
   281
 73
   282
  0
VERTEX
  8
pSphere1
 62
   254
 10
0.0
 20
0.0
 30
0.0
 70
   128
 71
   283
 72
   263
 73
   262
  0
VERTEX
  8
pSphere1
 62
   254
 10
0.0
 20
0.0
 30
0.0
 70
   128
 71
   262
 72
   282
 73
   283
  0
VERTEX
  8
pSphere1
 62
   254
 10
0.0
 20
0.0
 30
0.0
 70
   128
 71
   284
 72
   264
 73
   263
  0
VERTEX
  8
pSphere1
 62
   254
 10
0.0
 20
0.0
 30
0.0
 70
   128
 71
   263
 72
   283
 73
   284
  0
VERTEX
  8
pSphere1
 62
   254
 10
0.0
 20
0.0
 30
0.0
 70
   128
 71
   285
 72
   265
 73
   264
  0
VERTEX
  8
pSphere1
 62
   254
 10
0.0
 20
0.0
 30
0.0
 70
   128
 71
   264
 72
   284
 73
   285
  0
VERTEX
  8
pSphere1
 62
   254
 10
0.0
 20
0.0
 30
0.0
 70
   128
 71
   286
 72
   266
 73
   265
  0
VERTEX
  8
pSphere1
 62
   254
 10
0.0
 20
0.0
 30
0.0
 70
   128
 71
   265
 72
   285
 73
   286
  0
VERTEX
  8
pSphere1
 62
   254
 10
0.0
 20
0.0
 30
0.0
 70
   128
 71
   287
 72
   267
 73
   266
  0
VERTEX
  8
pSphere1
 62
   254
 10
0.0
 20
0.0
 30
0.0
 70
   128
 71
   266
 72
   286
 73
   287
  0
VERTEX
  8
pSphere1
 62
   254
 10
0.0
 20
0.0
 30
0.0
 70
   128
 71
   288
 72
   268
 73
   267
  0
VERTEX
  8
pSphere1
 62
   254
 10
0.0
 20
0.0
 30
0.0
 70
   128
 71
   267
 72
   287
 73
   288
  0
VERTEX
  8
pSphere1
 62
   254
 10
0.0
 20
0.0
 30
0.0
 70
   128
 71
   289
 72
   269
 73
   268
  0
VERTEX
  8
pSphere1
 62
   254
 10
0.0
 20
0.0
 30
0.0
 70
   128
 71
   268
 72
   288
 73
   289
  0
VERTEX
  8
pSphere1
 62
   254
 10
0.0
 20
0.0
 30
0.0
 70
   128
 71
   290
 72
   270
 73
   269
  0
VERTEX
  8
pSphere1
 62
   254
 10
0.0
 20
0.0
 30
0.0
 70
   128
 71
   269
 72
   289
 73
   290
  0
VERTEX
  8
pSphere1
 62
   254
 10
0.0
 20
0.0
 30
0.0
 70
   128
 71
   291
 72
   271
 73
   270
  0
VERTEX
  8
pSphere1
 62
   254
 10
0.0
 20
0.0
 30
0.0
 70
   128
 71
   270
 72
   290
 73
   291
  0
VERTEX
  8
pSphere1
 62
   254
 10
0.0
 20
0.0
 30
0.0
 70
   128
 71
   292
 72
   272
 73
   271
  0
VERTEX
  8
pSphere1
 62
   254
 10
0.0
 20
0.0
 30
0.0
 70
   128
 71
   271
 72
   291
 73
   292
  0
VERTEX
  8
pSphere1
 62
   254
 10
0.0
 20
0.0
 30
0.0
 70
   128
 71
   293
 72
   273
 73
   272
  0
VERTEX
  8
pSphere1
 62
   254
 10
0.0
 20
0.0
 30
0.0
 70
   128
 71
   272
 72
   292
 73
   293
  0
VERTEX
  8
pSphere1
 62
   254
 10
0.0
 20
0.0
 30
0.0
 70
   128
 71
   294
 72
   274
 73
   273
  0
VERTEX
  8
pSphere1
 62
   254
 10
0.0
 20
0.0
 30
0.0
 70
   128
 71
   273
 72
   293
 73
   294
  0
VERTEX
  8
pSphere1
 62
   254
 10
0.0
 20
0.0
 30
0.0
 70
   128
 71
   295
 72
   275
 73
   274
  0
VERTEX
  8
pSphere1
 62
   254
 10
0.0
 20
0.0
 30
0.0
 70
   128
 71
   274
 72
   294
 73
   295
  0
VERTEX
  8
pSphere1
 62
   254
 10
0.0
 20
0.0
 30
0.0
 70
   128
 71
   296
 72
   276
 73
   275
  0
VERTEX
  8
pSphere1
 62
   254
 10
0.0
 20
0.0
 30
0.0
 70
   128
 71
   275
 72
   295
 73
   296
  0
VERTEX
  8
pSphere1
 62
   254
 10
0.0
 20
0.0
 30
0.0
 70
   128
 71
   297
 72
   277
 73
   276
  0
VERTEX
  8
pSphere1
 62
   254
 10
0.0
 20
0.0
 30
0.0
 70
   128
 71
   276
 72
   296
 73
   297
  0
VERTEX
  8
pSphere1
 62
   254
 10
0.0
 20
0.0
 30
0.0
 70
   128
 71
   298
 72
   278
 73
   277
  0
VERTEX
  8
pSphere1
 62
   254
 10
0.0
 20
0.0
 30
0.0
 70
   128
 71
   277
 72
   297
 73
   298
  0
VERTEX
  8
pSphere1
 62
   254
 10
0.0
 20
0.0
 30
0.0
 70
   128
 71
   299
 72
   279
 73
   278
  0
VERTEX
  8
pSphere1
 62
   254
 10
0.0
 20
0.0
 30
0.0
 70
   128
 71
   278
 72
   298
 73
   299
  0
VERTEX
  8
pSphere1
 62
   254
 10
0.0
 20
0.0
 30
0.0
 70
   128
 71
   300
 72
   280
 73
   279
  0
VERTEX
  8
pSphere1
 62
   254
 10
0.0
 20
0.0
 30
0.0
 70
   128
 71
   279
 72
   299
 73
   300
  0
VERTEX
  8
pSphere1
 62
   254
 10
0.0
 20
0.0
 30
0.0
 70
   128
 71
   281
 72
   261
 73
   280
  0
VERTEX
  8
pSphere1
 62
   254
 10
0.0
 20
0.0
 30
0.0
 70
   128
 71
   280
 72
   300
 73
   281
  0
VERTEX
  8
pSphere1
 62
   254
 10
0.0
 20
0.0
 30
0.0
 70
   128
 71
   302
 72
   282
 73
   281
  0
VERTEX
  8
pSphere1
 62
   254
 10
0.0
 20
0.0
 30
0.0
 70
   128
 71
   281
 72
   301
 73
   302
  0
VERTEX
  8
pSphere1
 62
   254
 10
0.0
 20
0.0
 30
0.0
 70
   128
 71
   303
 72
   283
 73
   282
  0
VERTEX
  8
pSphere1
 62
   254
 10
0.0
 20
0.0
 30
0.0
 70
   128
 71
   282
 72
   302
 73
   303
  0
VERTEX
  8
pSphere1
 62
   254
 10
0.0
 20
0.0
 30
0.0
 70
   128
 71
   304
 72
   284
 73
   283
  0
VERTEX
  8
pSphere1
 62
   254
 10
0.0
 20
0.0
 30
0.0
 70
   128
 71
   283
 72
   303
 73
   304
  0
VERTEX
  8
pSphere1
 62
   254
 10
0.0
 20
0.0
 30
0.0
 70
   128
 71
   305
 72
   285
 73
   284
  0
VERTEX
  8
pSphere1
 62
   254
 10
0.0
 20
0.0
 30
0.0
 70
   128
 71
   284
 72
   304
 73
   305
  0
VERTEX
  8
pSphere1
 62
   254
 10
0.0
 20
0.0
 30
0.0
 70
   128
 71
   306
 72
   286
 73
   285
  0
VERTEX
  8
pSphere1
 62
   254
 10
0.0
 20
0.0
 30
0.0
 70
   128
 71
   285
 72
   305
 73
   306
  0
VERTEX
  8
pSphere1
 62
   254
 10
0.0
 20
0.0
 30
0.0
 70
   128
 71
   307
 72
   287
 73
   286
  0
VERTEX
  8
pSphere1
 62
   254
 10
0.0
 20
0.0
 30
0.0
 70
   128
 71
   286
 72
   306
 73
   307
  0
VERTEX
  8
pSphere1
 62
   254
 10
0.0
 20
0.0
 30
0.0
 70
   128
 71
   308
 72
   288
 73
   287
  0
VERTEX
  8
pSphere1
 62
   254
 10
0.0
 20
0.0
 30
0.0
 70
   128
 71
   287
 72
   307
 73
   308
  0
VERTEX
  8
pSphere1
 62
   254
 10
0.0
 20
0.0
 30
0.0
 70
   128
 71
   309
 72
   289
 73
   288
  0
VERTEX
  8
pSphere1
 62
   254
 10
0.0
 20
0.0
 30
0.0
 70
   128
 71
   288
 72
   308
 73
   309
  0
VERTEX
  8
pSphere1
 62
   254
 10
0.0
 20
0.0
 30
0.0
 70
   128
 71
   310
 72
   290
 73
   289
  0
VERTEX
  8
pSphere1
 62
   254
 10
0.0
 20
0.0
 30
0.0
 70
   128
 71
   289
 72
   309
 73
   310
  0
VERTEX
  8
pSphere1
 62
   254
 10
0.0
 20
0.0
 30
0.0
 70
   128
 71
   311
 72
   291
 73
   290
  0
VERTEX
  8
pSphere1
 62
   254
 10
0.0
 20
0.0
 30
0.0
 70
   128
 71
   290
 72
   310
 73
   311
  0
VERTEX
  8
pSphere1
 62
   254
 10
0.0
 20
0.0
 30
0.0
 70
   128
 71
   312
 72
   292
 73
   291
  0
VERTEX
  8
pSphere1
 62
   254
 10
0.0
 20
0.0
 30
0.0
 70
   128
 71
   291
 72
   311
 73
   312
  0
VERTEX
  8
pSphere1
 62
   254
 10
0.0
 20
0.0
 30
0.0
 70
   128
 71
   313
 72
   293
 73
   292
  0
VERTEX
  8
pSphere1
 62
   254
 10
0.0
 20
0.0
 30
0.0
 70
   128
 71
   292
 72
   312
 73
   313
  0
VERTEX
  8
pSphere1
 62
   254
 10
0.0
 20
0.0
 30
0.0
 70
   128
 71
   314
 72
   294
 73
   293
  0
VERTEX
  8
pSphere1
 62
   254
 10
0.0
 20
0.0
 30
0.0
 70
   128
 71
   293
 72
   313
 73
   314
  0
VERTEX
  8
pSphere1
 62
   254
 10
0.0
 20
0.0
 30
0.0
 70
   128
 71
   315
 72
   295
 73
   294
  0
VERTEX
  8
pSphere1
 62
   254
 10
0.0
 20
0.0
 30
0.0
 70
   128
 71
   294
 72
   314
 73
   315
  0
VERTEX
  8
pSphere1
 62
   254
 10
0.0
 20
0.0
 30
0.0
 70
   128
 71
   316
 72
   296
 73
   295
  0
VERTEX
  8
pSphere1
 62
   254
 10
0.0
 20
0.0
 30
0.0
 70
   128
 71
   295
 72
   315
 73
   316
  0
VERTEX
  8
pSphere1
 62
   254
 10
0.0
 20
0.0
 30
0.0
 70
   128
 71
   317
 72
   297
 73
   296
  0
VERTEX
  8
pSphere1
 62
   254
 10
0.0
 20
0.0
 30
0.0
 70
   128
 71
   296
 72
   316
 73
   317
  0
VERTEX
  8
pSphere1
 62
   254
 10
0.0
 20
0.0
 30
0.0
 70
   128
 71
   318
 72
   298
 73
   297
  0
VERTEX
  8
pSphere1
 62
   254
 10
0.0
 20
0.0
 30
0.0
 70
   128
 71
   297
 72
   317
 73
   318
  0
VERTEX
  8
pSphere1
 62
   254
 10
0.0
 20
0.0
 30
0.0
 70
   128
 71
   319
 72
   299
 73
   298
  0
VERTEX
  8
pSphere1
 62
   254
 10
0.0
 20
0.0
 30
0.0
 70
   128
 71
   298
 72
   318
 73
   319
  0
VERTEX
  8
pSphere1
 62
   254
 10
0.0
 20
0.0
 30
0.0
 70
   128
 71
   320
 72
   300
 73
   299
  0
VERTEX
  8
pSphere1
 62
   254
 10
0.0
 20
0.0
 30
0.0
 70
   128
 71
   299
 72
   319
 73
   320
  0
VERTEX
  8
pSphere1
 62
   254
 10
0.0
 20
0.0
 30
0.0
 70
   128
 71
   301
 72
   281
 73
   300
  0
VERTEX
  8
pSphere1
 62
   254
 10
0.0
 20
0.0
 30
0.0
 70
   128
 71
   300
 72
   320
 73
   301
  0
VERTEX
  8
pSphere1
 62
   254
 10
0.0
 20
0.0
 30
0.0
 70
   128
 71
   322
 72
   302
 73
   301
  0
VERTEX
  8
pSphere1
 62
   254
 10
0.0
 20
0.0
 30
0.0
 70
   128
 71
   301
 72
   321
 73
   322
  0
VERTEX
  8
pSphere1
 62
   254
 10
0.0
 20
0.0
 30
0.0
 70
   128
 71
   323
 72
   303
 73
   302
  0
VERTEX
  8
pSphere1
 62
   254
 10
0.0
 20
0.0
 30
0.0
 70
   128
 71
   302
 72
   322
 73
   323
  0
VERTEX
  8
pSphere1
 62
   254
 10
0.0
 20
0.0
 30
0.0
 70
   128
 71
   324
 72
   304
 73
   303
  0
VERTEX
  8
pSphere1
 62
   254
 10
0.0
 20
0.0
 30
0.0
 70
   128
 71
   303
 72
   323
 73
   324
  0
VERTEX
  8
pSphere1
 62
   254
 10
0.0
 20
0.0
 30
0.0
 70
   128
 71
   325
 72
   305
 73
   304
  0
VERTEX
  8
pSphere1
 62
   254
 10
0.0
 20
0.0
 30
0.0
 70
   128
 71
   304
 72
   324
 73
   325
  0
VERTEX
  8
pSphere1
 62
   254
 10
0.0
 20
0.0
 30
0.0
 70
   128
 71
   326
 72
   306
 73
   305
  0
VERTEX
  8
pSphere1
 62
   254
 10
0.0
 20
0.0
 30
0.0
 70
   128
 71
   305
 72
   325
 73
   326
  0
VERTEX
  8
pSphere1
 62
   254
 10
0.0
 20
0.0
 30
0.0
 70
   128
 71
   327
 72
   307
 73
   306
  0
VERTEX
  8
pSphere1
 62
   254
 10
0.0
 20
0.0
 30
0.0
 70
   128
 71
   306
 72
   326
 73
   327
  0
VERTEX
  8
pSphere1
 62
   254
 10
0.0
 20
0.0
 30
0.0
 70
   128
 71
   328
 72
   308
 73
   307
  0
VERTEX
  8
pSphere1
 62
   254
 10
0.0
 20
0.0
 30
0.0
 70
   128
 71
   307
 72
   327
 73
   328
  0
VERTEX
  8
pSphere1
 62
   254
 10
0.0
 20
0.0
 30
0.0
 70
   128
 71
   329
 72
   309
 73
   308
  0
VERTEX
  8
pSphere1
 62
   254
 10
0.0
 20
0.0
 30
0.0
 70
   128
 71
   308
 72
   328
 73
   329
  0
VERTEX
  8
pSphere1
 62
   254
 10
0.0
 20
0.0
 30
0.0
 70
   128
 71
   330
 72
   310
 73
   309
  0
VERTEX
  8
pSphere1
 62
   254
 10
0.0
 20
0.0
 30
0.0
 70
   128
 71
   309
 72
   329
 73
   330
  0
VERTEX
  8
pSphere1
 62
   254
 10
0.0
 20
0.0
 30
0.0
 70
   128
 71
   331
 72
   311
 73
   310
  0
VERTEX
  8
pSphere1
 62
   254
 10
0.0
 20
0.0
 30
0.0
 70
   128
 71
   310
 72
   330
 73
   331
  0
VERTEX
  8
pSphere1
 62
   254
 10
0.0
 20
0.0
 30
0.0
 70
   128
 71
   332
 72
   312
 73
   311
  0
VERTEX
  8
pSphere1
 62
   254
 10
0.0
 20
0.0
 30
0.0
 70
   128
 71
   311
 72
   331
 73
   332
  0
VERTEX
  8
pSphere1
 62
   254
 10
0.0
 20
0.0
 30
0.0
 70
   128
 71
   333
 72
   313
 73
   312
  0
VERTEX
  8
pSphere1
 62
   254
 10
0.0
 20
0.0
 30
0.0
 70
   128
 71
   312
 72
   332
 73
   333
  0
VERTEX
  8
pSphere1
 62
   254
 10
0.0
 20
0.0
 30
0.0
 70
   128
 71
   334
 72
   314
 73
   313
  0
VERTEX
  8
pSphere1
 62
   254
 10
0.0
 20
0.0
 30
0.0
 70
   128
 71
   313
 72
   333
 73
   334
  0
VERTEX
  8
pSphere1
 62
   254
 10
0.0
 20
0.0
 30
0.0
 70
   128
 71
   335
 72
   315
 73
   314
  0
VERTEX
  8
pSphere1
 62
   254
 10
0.0
 20
0.0
 30
0.0
 70
   128
 71
   314
 72
   334
 73
   335
  0
VERTEX
  8
pSphere1
 62
   254
 10
0.0
 20
0.0
 30
0.0
 70
   128
 71
   336
 72
   316
 73
   315
  0
VERTEX
  8
pSphere1
 62
   254
 10
0.0
 20
0.0
 30
0.0
 70
   128
 71
   315
 72
   335
 73
   336
  0
VERTEX
  8
pSphere1
 62
   254
 10
0.0
 20
0.0
 30
0.0
 70
   128
 71
   337
 72
   317
 73
   316
  0
VERTEX
  8
pSphere1
 62
   254
 10
0.0
 20
0.0
 30
0.0
 70
   128
 71
   316
 72
   336
 73
   337
  0
VERTEX
  8
pSphere1
 62
   254
 10
0.0
 20
0.0
 30
0.0
 70
   128
 71
   338
 72
   318
 73
   317
  0
VERTEX
  8
pSphere1
 62
   254
 10
0.0
 20
0.0
 30
0.0
 70
   128
 71
   317
 72
   337
 73
   338
  0
VERTEX
  8
pSphere1
 62
   254
 10
0.0
 20
0.0
 30
0.0
 70
   128
 71
   339
 72
   319
 73
   318
  0
VERTEX
  8
pSphere1
 62
   254
 10
0.0
 20
0.0
 30
0.0
 70
   128
 71
   318
 72
   338
 73
   339
  0
VERTEX
  8
pSphere1
 62
   254
 10
0.0
 20
0.0
 30
0.0
 70
   128
 71
   340
 72
   320
 73
   319
  0
VERTEX
  8
pSphere1
 62
   254
 10
0.0
 20
0.0
 30
0.0
 70
   128
 71
   319
 72
   339
 73
   340
  0
VERTEX
  8
pSphere1
 62
   254
 10
0.0
 20
0.0
 30
0.0
 70
   128
 71
   321
 72
   301
 73
   320
  0
VERTEX
  8
pSphere1
 62
   254
 10
0.0
 20
0.0
 30
0.0
 70
   128
 71
   320
 72
   340
 73
   321
  0
VERTEX
  8
pSphere1
 62
   254
 10
0.0
 20
0.0
 30
0.0
 70
   128
 71
   342
 72
   322
 73
   321
  0
VERTEX
  8
pSphere1
 62
   254
 10
0.0
 20
0.0
 30
0.0
 70
   128
 71
   321
 72
   341
 73
   342
  0
VERTEX
  8
pSphere1
 62
   254
 10
0.0
 20
0.0
 30
0.0
 70
   128
 71
   343
 72
   323
 73
   322
  0
VERTEX
  8
pSphere1
 62
   254
 10
0.0
 20
0.0
 30
0.0
 70
   128
 71
   322
 72
   342
 73
   343
  0
VERTEX
  8
pSphere1
 62
   254
 10
0.0
 20
0.0
 30
0.0
 70
   128
 71
   344
 72
   324
 73
   323
  0
VERTEX
  8
pSphere1
 62
   254
 10
0.0
 20
0.0
 30
0.0
 70
   128
 71
   323
 72
   343
 73
   344
  0
VERTEX
  8
pSphere1
 62
   254
 10
0.0
 20
0.0
 30
0.0
 70
   128
 71
   345
 72
   325
 73
   324
  0
VERTEX
  8
pSphere1
 62
   254
 10
0.0
 20
0.0
 30
0.0
 70
   128
 71
   324
 72
   344
 73
   345
  0
VERTEX
  8
pSphere1
 62
   254
 10
0.0
 20
0.0
 30
0.0
 70
   128
 71
   346
 72
   326
 73
   325
  0
VERTEX
  8
pSphere1
 62
   254
 10
0.0
 20
0.0
 30
0.0
 70
   128
 71
   325
 72
   345
 73
   346
  0
VERTEX
  8
pSphere1
 62
   254
 10
0.0
 20
0.0
 30
0.0
 70
   128
 71
   347
 72
   327
 73
   326
  0
VERTEX
  8
pSphere1
 62
   254
 10
0.0
 20
0.0
 30
0.0
 70
   128
 71
   326
 72
   346
 73
   347
  0
VERTEX
  8
pSphere1
 62
   254
 10
0.0
 20
0.0
 30
0.0
 70
   128
 71
   348
 72
   328
 73
   327
  0
VERTEX
  8
pSphere1
 62
   254
 10
0.0
 20
0.0
 30
0.0
 70
   128
 71
   327
 72
   347
 73
   348
  0
VERTEX
  8
pSphere1
 62
   254
 10
0.0
 20
0.0
 30
0.0
 70
   128
 71
   349
 72
   329
 73
   328
  0
VERTEX
  8
pSphere1
 62
   254
 10
0.0
 20
0.0
 30
0.0
 70
   128
 71
   328
 72
   348
 73
   349
  0
VERTEX
  8
pSphere1
 62
   254
 10
0.0
 20
0.0
 30
0.0
 70
   128
 71
   350
 72
   330
 73
   329
  0
VERTEX
  8
pSphere1
 62
   254
 10
0.0
 20
0.0
 30
0.0
 70
   128
 71
   329
 72
   349
 73
   350
  0
VERTEX
  8
pSphere1
 62
   254
 10
0.0
 20
0.0
 30
0.0
 70
   128
 71
   351
 72
   331
 73
   330
  0
VERTEX
  8
pSphere1
 62
   254
 10
0.0
 20
0.0
 30
0.0
 70
   128
 71
   330
 72
   350
 73
   351
  0
VERTEX
  8
pSphere1
 62
   254
 10
0.0
 20
0.0
 30
0.0
 70
   128
 71
   352
 72
   332
 73
   331
  0
VERTEX
  8
pSphere1
 62
   254
 10
0.0
 20
0.0
 30
0.0
 70
   128
 71
   331
 72
   351
 73
   352
  0
VERTEX
  8
pSphere1
 62
   254
 10
0.0
 20
0.0
 30
0.0
 70
   128
 71
   353
 72
   333
 73
   332
  0
VERTEX
  8
pSphere1
 62
   254
 10
0.0
 20
0.0
 30
0.0
 70
   128
 71
   332
 72
   352
 73
   353
  0
VERTEX
  8
pSphere1
 62
   254
 10
0.0
 20
0.0
 30
0.0
 70
   128
 71
   354
 72
   334
 73
   333
  0
VERTEX
  8
pSphere1
 62
   254
 10
0.0
 20
0.0
 30
0.0
 70
   128
 71
   333
 72
   353
 73
   354
  0
VERTEX
  8
pSphere1
 62
   254
 10
0.0
 20
0.0
 30
0.0
 70
   128
 71
   355
 72
   335
 73
   334
  0
VERTEX
  8
pSphere1
 62
   254
 10
0.0
 20
0.0
 30
0.0
 70
   128
 71
   334
 72
   354
 73
   355
  0
VERTEX
  8
pSphere1
 62
   254
 10
0.0
 20
0.0
 30
0.0
 70
   128
 71
   356
 72
   336
 73
   335
  0
VERTEX
  8
pSphere1
 62
   254
 10
0.0
 20
0.0
 30
0.0
 70
   128
 71
   335
 72
   355
 73
   356
  0
VERTEX
  8
pSphere1
 62
   254
 10
0.0
 20
0.0
 30
0.0
 70
   128
 71
   357
 72
   337
 73
   336
  0
VERTEX
  8
pSphere1
 62
   254
 10
0.0
 20
0.0
 30
0.0
 70
   128
 71
   336
 72
   356
 73
   357
  0
VERTEX
  8
pSphere1
 62
   254
 10
0.0
 20
0.0
 30
0.0
 70
   128
 71
   358
 72
   338
 73
   337
  0
VERTEX
  8
pSphere1
 62
   254
 10
0.0
 20
0.0
 30
0.0
 70
   128
 71
   337
 72
   357
 73
   358
  0
VERTEX
  8
pSphere1
 62
   254
 10
0.0
 20
0.0
 30
0.0
 70
   128
 71
   359
 72
   339
 73
   338
  0
VERTEX
  8
pSphere1
 62
   254
 10
0.0
 20
0.0
 30
0.0
 70
   128
 71
   338
 72
   358
 73
   359
  0
VERTEX
  8
pSphere1
 62
   254
 10
0.0
 20
0.0
 30
0.0
 70
   128
 71
   360
 72
   340
 73
   339
  0
VERTEX
  8
pSphere1
 62
   254
 10
0.0
 20
0.0
 30
0.0
 70
   128
 71
   339
 72
   359
 73
   360
  0
VERTEX
  8
pSphere1
 62
   254
 10
0.0
 20
0.0
 30
0.0
 70
   128
 71
   341
 72
   321
 73
   340
  0
VERTEX
  8
pSphere1
 62
   254
 10
0.0
 20
0.0
 30
0.0
 70
   128
 71
   340
 72
   360
 73
   341
  0
VERTEX
  8
pSphere1
 62
   254
 10
0.0
 20
0.0
 30
0.0
 70
   128
 71
   362
 72
   342
 73
   341
  0
VERTEX
  8
pSphere1
 62
   254
 10
0.0
 20
0.0
 30
0.0
 70
   128
 71
   341
 72
   361
 73
   362
  0
VERTEX
  8
pSphere1
 62
   254
 10
0.0
 20
0.0
 30
0.0
 70
   128
 71
   363
 72
   343
 73
   342
  0
VERTEX
  8
pSphere1
 62
   254
 10
0.0
 20
0.0
 30
0.0
 70
   128
 71
   342
 72
   362
 73
   363
  0
VERTEX
  8
pSphere1
 62
   254
 10
0.0
 20
0.0
 30
0.0
 70
   128
 71
   364
 72
   344
 73
   343
  0
VERTEX
  8
pSphere1
 62
   254
 10
0.0
 20
0.0
 30
0.0
 70
   128
 71
   343
 72
   363
 73
   364
  0
VERTEX
  8
pSphere1
 62
   254
 10
0.0
 20
0.0
 30
0.0
 70
   128
 71
   365
 72
   345
 73
   344
  0
VERTEX
  8
pSphere1
 62
   254
 10
0.0
 20
0.0
 30
0.0
 70
   128
 71
   344
 72
   364
 73
   365
  0
VERTEX
  8
pSphere1
 62
   254
 10
0.0
 20
0.0
 30
0.0
 70
   128
 71
   366
 72
   346
 73
   345
  0
VERTEX
  8
pSphere1
 62
   254
 10
0.0
 20
0.0
 30
0.0
 70
   128
 71
   345
 72
   365
 73
   366
  0
VERTEX
  8
pSphere1
 62
   254
 10
0.0
 20
0.0
 30
0.0
 70
   128
 71
   367
 72
   347
 73
   346
  0
VERTEX
  8
pSphere1
 62
   254
 10
0.0
 20
0.0
 30
0.0
 70
   128
 71
   346
 72
   366
 73
   367
  0
VERTEX
  8
pSphere1
 62
   254
 10
0.0
 20
0.0
 30
0.0
 70
   128
 71
   368
 72
   348
 73
   347
  0
VERTEX
  8
pSphere1
 62
   254
 10
0.0
 20
0.0
 30
0.0
 70
   128
 71
   347
 72
   367
 73
   368
  0
VERTEX
  8
pSphere1
 62
   254
 10
0.0
 20
0.0
 30
0.0
 70
   128
 71
   369
 72
   349
 73
   348
  0
VERTEX
  8
pSphere1
 62
   254
 10
0.0
 20
0.0
 30
0.0
 70
   128
 71
   348
 72
   368
 73
   369
  0
VERTEX
  8
pSphere1
 62
   254
 10
0.0
 20
0.0
 30
0.0
 70
   128
 71
   370
 72
   350
 73
   349
  0
VERTEX
  8
pSphere1
 62
   254
 10
0.0
 20
0.0
 30
0.0
 70
   128
 71
   349
 72
   369
 73
   370
  0
VERTEX
  8
pSphere1
 62
   254
 10
0.0
 20
0.0
 30
0.0
 70
   128
 71
   371
 72
   351
 73
   350
  0
VERTEX
  8
pSphere1
 62
   254
 10
0.0
 20
0.0
 30
0.0
 70
   128
 71
   350
 72
   370
 73
   371
  0
VERTEX
  8
pSphere1
 62
   254
 10
0.0
 20
0.0
 30
0.0
 70
   128
 71
   372
 72
   352
 73
   351
  0
VERTEX
  8
pSphere1
 62
   254
 10
0.0
 20
0.0
 30
0.0
 70
   128
 71
   351
 72
   371
 73
   372
  0
VERTEX
  8
pSphere1
 62
   254
 10
0.0
 20
0.0
 30
0.0
 70
   128
 71
   373
 72
   353
 73
   352
  0
VERTEX
  8
pSphere1
 62
   254
 10
0.0
 20
0.0
 30
0.0
 70
   128
 71
   352
 72
   372
 73
   373
  0
VERTEX
  8
pSphere1
 62
   254
 10
0.0
 20
0.0
 30
0.0
 70
   128
 71
   374
 72
   354
 73
   353
  0
VERTEX
  8
pSphere1
 62
   254
 10
0.0
 20
0.0
 30
0.0
 70
   128
 71
   353
 72
   373
 73
   374
  0
VERTEX
  8
pSphere1
 62
   254
 10
0.0
 20
0.0
 30
0.0
 70
   128
 71
   375
 72
   355
 73
   354
  0
VERTEX
  8
pSphere1
 62
   254
 10
0.0
 20
0.0
 30
0.0
 70
   128
 71
   354
 72
   374
 73
   375
  0
VERTEX
  8
pSphere1
 62
   254
 10
0.0
 20
0.0
 30
0.0
 70
   128
 71
   376
 72
   356
 73
   355
  0
VERTEX
  8
pSphere1
 62
   254
 10
0.0
 20
0.0
 30
0.0
 70
   128
 71
   355
 72
   375
 73
   376
  0
VERTEX
  8
pSphere1
 62
   254
 10
0.0
 20
0.0
 30
0.0
 70
   128
 71
   377
 72
   357
 73
   356
  0
VERTEX
  8
pSphere1
 62
   254
 10
0.0
 20
0.0
 30
0.0
 70
   128
 71
   356
 72
   376
 73
   377
  0
VERTEX
  8
pSphere1
 62
   254
 10
0.0
 20
0.0
 30
0.0
 70
   128
 71
   378
 72
   358
 73
   357
  0
VERTEX
  8
pSphere1
 62
   254
 10
0.0
 20
0.0
 30
0.0
 70
   128
 71
   357
 72
   377
 73
   378
  0
VERTEX
  8
pSphere1
 62
   254
 10
0.0
 20
0.0
 30
0.0
 70
   128
 71
   379
 72
   359
 73
   358
  0
VERTEX
  8
pSphere1
 62
   254
 10
0.0
 20
0.0
 30
0.0
 70
   128
 71
   358
 72
   378
 73
   379
  0
VERTEX
  8
pSphere1
 62
   254
 10
0.0
 20
0.0
 30
0.0
 70
   128
 71
   380
 72
   360
 73
   359
  0
VERTEX
  8
pSphere1
 62
   254
 10
0.0
 20
0.0
 30
0.0
 70
   128
 71
   359
 72
   379
 73
   380
  0
VERTEX
  8
pSphere1
 62
   254
 10
0.0
 20
0.0
 30
0.0
 70
   128
 71
   361
 72
   341
 73
   360
  0
VERTEX
  8
pSphere1
 62
   254
 10
0.0
 20
0.0
 30
0.0
 70
   128
 71
   360
 72
   380
 73
   361
  0
VERTEX
  8
pSphere1
 62
   254
 10
0.0
 20
0.0
 30
0.0
 70
   128
 71
   381
 72
   1
 73
   2
  0
VERTEX
  8
pSphere1
 62
   254
 10
0.0
 20
0.0
 30
0.0
 70
   128
 71
   381
 72
   2
 73
   3
  0
VERTEX
  8
pSphere1
 62
   254
 10
0.0
 20
0.0
 30
0.0
 70
   128
 71
   381
 72
   3
 73
   4
  0
VERTEX
  8
pSphere1
 62
   254
 10
0.0
 20
0.0
 30
0.0
 70
   128
 71
   381
 72
   4
 73
   5
  0
VERTEX
  8
pSphere1
 62
   254
 10
0.0
 20
0.0
 30
0.0
 70
   128
 71
   381
 72
   5
 73
   6
  0
VERTEX
  8
pSphere1
 62
   254
 10
0.0
 20
0.0
 30
0.0
 70
   128
 71
   381
 72
   6
 73
   7
  0
VERTEX
  8
pSphere1
 62
   254
 10
0.0
 20
0.0
 30
0.0
 70
   128
 71
   381
 72
   7
 73
   8
  0
VERTEX
  8
pSphere1
 62
   254
 10
0.0
 20
0.0
 30
0.0
 70
   128
 71
   381
 72
   8
 73
   9
  0
VERTEX
  8
pSphere1
 62
   254
 10
0.0
 20
0.0
 30
0.0
 70
   128
 71
   381
 72
   9
 73
   10
  0
VERTEX
  8
pSphere1
 62
   254
 10
0.0
 20
0.0
 30
0.0
 70
   128
 71
   381
 72
   10
 73
   11
  0
VERTEX
  8
pSphere1
 62
   254
 10
0.0
 20
0.0
 30
0.0
 70
   128
 71
   381
 72
   11
 73
   12
  0
VERTEX
  8
pSphere1
 62
   254
 10
0.0
 20
0.0
 30
0.0
 70
   128
 71
   381
 72
   12
 73
   13
  0
VERTEX
  8
pSphere1
 62
   254
 10
0.0
 20
0.0
 30
0.0
 70
   128
 71
   381
 72
   13
 73
   14
  0
VERTEX
  8
pSphere1
 62
   254
 10
0.0
 20
0.0
 30
0.0
 70
   128
 71
   381
 72
   14
 73
   15
  0
VERTEX
  8
pSphere1
 62
   254
 10
0.0
 20
0.0
 30
0.0
 70
   128
 71
   381
 72
   15
 73
   16
  0
VERTEX
  8
pSphere1
 62
   254
 10
0.0
 20
0.0
 30
0.0
 70
   128
 71
   381
 72
   16
 73
   17
  0
VERTEX
  8
pSphere1
 62
   254
 10
0.0
 20
0.0
 30
0.0
 70
   128
 71
   381
 72
   17
 73
   18
  0
VERTEX
  8
pSphere1
 62
   254
 10
0.0
 20
0.0
 30
0.0
 70
   128
 71
   381
 72
   18
 73
   19
  0
VERTEX
  8
pSphere1
 62
   254
 10
0.0
 20
0.0
 30
0.0
 70
   128
 71
   381
 72
   19
 73
   20
  0
VERTEX
  8
pSphere1
 62
   254
 10
0.0
 20
0.0
 30
0.0
 70
   128
 71
   381
 72
   20
 73
   1
  0
VERTEX
  8
pSphere1
 62
   254
 10
0.0
 20
0.0
 30
0.0
 70
   128
 71
   382
 72
   362
 73
   361
  0
VERTEX
  8
pSphere1
 62
   254
 10
0.0
 20
0.0
 30
0.0
 70
   128
 71
   382
 72
   363
 73
   362
  0
VERTEX
  8
pSphere1
 62
   254
 10
0.0
 20
0.0
 30
0.0
 70
   128
 71
   382
 72
   364
 73
   363
  0
VERTEX
  8
pSphere1
 62
   254
 10
0.0
 20
0.0
 30
0.0
 70
   128
 71
   382
 72
   365
 73
   364
  0
VERTEX
  8
pSphere1
 62
   254
 10
0.0
 20
0.0
 30
0.0
 70
   128
 71
   382
 72
   366
 73
   365
  0
VERTEX
  8
pSphere1
 62
   254
 10
0.0
 20
0.0
 30
0.0
 70
   128
 71
   382
 72
   367
 73
   366
  0
VERTEX
  8
pSphere1
 62
   254
 10
0.0
 20
0.0
 30
0.0
 70
   128
 71
   382
 72
   368
 73
   367
  0
VERTEX
  8
pSphere1
 62
   254
 10
0.0
 20
0.0
 30
0.0
 70
   128
 71
   382
 72
   369
 73
   368
  0
VERTEX
  8
pSphere1
 62
   254
 10
0.0
 20
0.0
 30
0.0
 70
   128
 71
   382
 72
   370
 73
   369
  0
VERTEX
  8
pSphere1
 62
   254
 10
0.0
 20
0.0
 30
0.0
 70
   128
 71
   382
 72
   371
 73
   370
  0
VERTEX
  8
pSphere1
 62
   254
 10
0.0
 20
0.0
 30
0.0
 70
   128
 71
   382
 72
   372
 73
   371
  0
VERTEX
  8
pSphere1
 62
   254
 10
0.0
 20
0.0
 30
0.0
 70
   128
 71
   382
 72
   373
 73
   372
  0
VERTEX
  8
pSphere1
 62
   254
 10
0.0
 20
0.0
 30
0.0
 70
   128
 71
   382
 72
   374
 73
   373
  0
VERTEX
  8
pSphere1
 62
   254
 10
0.0
 20
0.0
 30
0.0
 70
   128
 71
   382
 72
   375
 73
   374
  0
VERTEX
  8
pSphere1
 62
   254
 10
0.0
 20
0.0
 30
0.0
 70
   128
 71
   382
 72
   376
 73
   375
  0
VERTEX
  8
pSphere1
 62
   254
 10
0.0
 20
0.0
 30
0.0
 70
   128
 71
   382
 72
   377
 73
   376
  0
VERTEX
  8
pSphere1
 62
   254
 10
0.0
 20
0.0
 30
0.0
 70
   128
 71
   382
 72
   378
 73
   377
  0
VERTEX
  8
pSphere1
 62
   254
 10
0.0
 20
0.0
 30
0.0
 70
   128
 71
   382
 72
   379
 73
   378
  0
VERTEX
  8
pSphere1
 62
   254
 10
0.0
 20
0.0
 30
0.0
 70
   128
 71
   382
 72
   380
 73
   379
  0
VERTEX
  8
pSphere1
 62
   254
 10
0.0
 20
0.0
 30
0.0
 70
   128
 71
   382
 72
   361
 73
   380
  0
SEQEND
  0
ENDSEC
  0
EOF
